G04 MADE WITH FRITZING*
G04 WWW.FRITZING.ORG*
G04 DOUBLE SIDED*
G04 HOLES PLATED*
G04 CONTOUR ON CENTER OF CONTOUR VECTOR*
%ASAXBY*%
%FSLAX23Y23*%
%MOIN*%
%OFA0B0*%
%SFA1.0B1.0*%
%ADD10C,0.088000*%
%ADD11C,0.085000*%
%ADD12C,0.079444*%
%ADD13C,0.092000*%
%ADD14C,0.090000*%
%ADD15C,0.062000*%
%ADD16C,0.150000*%
%ADD17R,0.092000X0.092000*%
%ADD18R,0.090000X0.090000*%
%ADD19R,0.085000X0.085000*%
%ADD20R,0.001000X0.001000*%
%LNMASK0*%
G90*
G70*
G54D10*
X1701Y203D03*
X1701Y303D03*
X1701Y403D03*
X1701Y503D03*
G54D11*
X751Y2053D03*
X751Y1653D03*
X651Y2053D03*
X651Y1653D03*
G54D10*
X851Y403D03*
X851Y303D03*
X851Y203D03*
X301Y3203D03*
X301Y3103D03*
X851Y903D03*
X851Y803D03*
X851Y703D03*
G54D12*
X1051Y1403D03*
X1051Y1303D03*
X1051Y1203D03*
G54D11*
X901Y1303D03*
X901Y1203D03*
X1751Y2503D03*
X1851Y2503D03*
X1551Y2503D03*
X1651Y2503D03*
X1751Y2103D03*
X1851Y2103D03*
X1551Y2103D03*
X1651Y2103D03*
X1551Y1703D03*
X1651Y1703D03*
X1751Y1703D03*
X1851Y1703D03*
X1751Y1303D03*
X1851Y1303D03*
X1551Y1303D03*
X1651Y1303D03*
G54D10*
X101Y1303D03*
X101Y1203D03*
X101Y1103D03*
X101Y1003D03*
X101Y803D03*
X101Y703D03*
X101Y603D03*
X101Y403D03*
X101Y303D03*
X101Y203D03*
X451Y1303D03*
X551Y1303D03*
X651Y1303D03*
X751Y1303D03*
X551Y2903D03*
X651Y2903D03*
X751Y2903D03*
X1076Y603D03*
X1076Y503D03*
X1076Y203D03*
X1076Y103D03*
X1801Y603D03*
X1801Y503D03*
X1801Y203D03*
X1801Y103D03*
G54D13*
X353Y1003D03*
X651Y1003D03*
G54D11*
X1551Y3303D03*
X1651Y3303D03*
X1751Y3303D03*
X1851Y3303D03*
X1751Y2903D03*
X1851Y2903D03*
G54D13*
X1601Y828D03*
X1701Y828D03*
X1801Y828D03*
X1601Y2703D03*
X1701Y2703D03*
X1801Y2703D03*
X1601Y1103D03*
X1701Y1103D03*
X1801Y1103D03*
X1601Y1503D03*
X1701Y1503D03*
X1801Y1503D03*
X1601Y1903D03*
X1701Y1903D03*
X1801Y1903D03*
X1601Y2303D03*
X1701Y2303D03*
X1801Y2303D03*
X1601Y3103D03*
X1701Y3103D03*
X1801Y3103D03*
X2001Y1301D03*
X2001Y1003D03*
X2001Y1701D03*
X2001Y1403D03*
X2001Y2101D03*
X2001Y1803D03*
X2001Y2501D03*
X2001Y2203D03*
X2001Y2901D03*
X2001Y2603D03*
X2001Y3301D03*
X2001Y3003D03*
G54D14*
X2251Y903D03*
X2251Y703D03*
X2251Y1303D03*
X2251Y1103D03*
X2251Y1703D03*
X2251Y1503D03*
X2251Y2103D03*
X2251Y1903D03*
X2251Y2503D03*
X2251Y2303D03*
X2251Y2903D03*
X2251Y2703D03*
X2251Y3303D03*
X2251Y3103D03*
G54D15*
X101Y3003D03*
X101Y2903D03*
X101Y2803D03*
X101Y2703D03*
X101Y2603D03*
X101Y2503D03*
X101Y2403D03*
X101Y2303D03*
X101Y2203D03*
X101Y2103D03*
X101Y2003D03*
X101Y1903D03*
X101Y1803D03*
X101Y1703D03*
X101Y1603D03*
X1101Y1603D03*
X1101Y1703D03*
X1101Y1803D03*
X1101Y1903D03*
X1101Y2003D03*
X1101Y2103D03*
X1101Y2203D03*
X1101Y2303D03*
X1101Y2403D03*
X1101Y2503D03*
X1101Y2603D03*
X1101Y2703D03*
X1101Y2803D03*
X1101Y2903D03*
X1101Y3003D03*
G54D16*
X2011Y303D03*
X2251Y303D03*
X2131Y493D03*
G54D11*
X351Y903D03*
X651Y903D03*
X351Y803D03*
X651Y803D03*
X351Y703D03*
X651Y703D03*
X351Y603D03*
X651Y603D03*
X351Y503D03*
X651Y503D03*
X351Y403D03*
X651Y403D03*
X351Y303D03*
X651Y303D03*
X351Y203D03*
X651Y203D03*
X1301Y1403D03*
X1301Y1303D03*
X1301Y1203D03*
X951Y2053D03*
X951Y1653D03*
G54D10*
X201Y3003D03*
X201Y2903D03*
X201Y2803D03*
X201Y2703D03*
X201Y2603D03*
X201Y2503D03*
X201Y2403D03*
X201Y2303D03*
X201Y2203D03*
X201Y2103D03*
X201Y2003D03*
X201Y1903D03*
X201Y1803D03*
X201Y1703D03*
X201Y1603D03*
X301Y3003D03*
X301Y2903D03*
X301Y2803D03*
X301Y2703D03*
X301Y2603D03*
X301Y2503D03*
X301Y2403D03*
X301Y2303D03*
X301Y2203D03*
X301Y2103D03*
X301Y2003D03*
X301Y1903D03*
X301Y1803D03*
X301Y1703D03*
X301Y1603D03*
X1301Y3003D03*
X1301Y2903D03*
X1301Y2803D03*
X1301Y2703D03*
X1301Y2603D03*
X1301Y2503D03*
X1301Y2403D03*
X1301Y2303D03*
X1301Y2203D03*
X1301Y2103D03*
X1301Y2003D03*
X1301Y1903D03*
X1301Y1803D03*
X1301Y1703D03*
X1301Y1603D03*
X1201Y3003D03*
X1201Y2903D03*
X1201Y2803D03*
X1201Y2703D03*
X1201Y2603D03*
X1201Y2503D03*
X1201Y2403D03*
X1201Y2303D03*
X1201Y2203D03*
X1201Y2103D03*
X1201Y2003D03*
X1201Y1903D03*
X1201Y1803D03*
X1201Y1703D03*
X1201Y1603D03*
G54D11*
X1551Y2903D03*
X1651Y2903D03*
G54D17*
X352Y1003D03*
X1601Y828D03*
X1601Y2703D03*
X1601Y1103D03*
X1601Y1503D03*
X1601Y1903D03*
X1601Y2303D03*
X1601Y3103D03*
X2001Y1302D03*
X2001Y1702D03*
X2001Y2102D03*
X2001Y2502D03*
X2001Y2902D03*
X2001Y3302D03*
G54D18*
X2251Y903D03*
X2251Y1303D03*
X2251Y1703D03*
X2251Y2103D03*
X2251Y2503D03*
X2251Y2903D03*
X2251Y3303D03*
G54D19*
X351Y903D03*
G54D20*
X73Y3039D02*
X131Y3039D01*
X1070Y3039D02*
X1128Y3039D01*
X68Y3038D02*
X136Y3038D01*
X1065Y3038D02*
X1133Y3038D01*
X64Y3037D02*
X139Y3037D01*
X1062Y3037D02*
X1136Y3037D01*
X62Y3036D02*
X142Y3036D01*
X1059Y3036D02*
X1139Y3036D01*
X60Y3035D02*
X144Y3035D01*
X1057Y3035D02*
X1141Y3035D01*
X58Y3034D02*
X146Y3034D01*
X1055Y3034D02*
X1143Y3034D01*
X56Y3033D02*
X147Y3033D01*
X1053Y3033D02*
X1145Y3033D01*
X55Y3032D02*
X149Y3032D01*
X1052Y3032D02*
X1146Y3032D01*
X54Y3031D02*
X150Y3031D01*
X1051Y3031D02*
X1147Y3031D01*
X52Y3030D02*
X151Y3030D01*
X1049Y3030D02*
X1148Y3030D01*
X51Y3029D02*
X152Y3029D01*
X1048Y3029D02*
X1150Y3029D01*
X50Y3028D02*
X153Y3028D01*
X1047Y3028D02*
X1151Y3028D01*
X49Y3027D02*
X154Y3027D01*
X1047Y3027D02*
X1151Y3027D01*
X49Y3026D02*
X155Y3026D01*
X1046Y3026D02*
X1152Y3026D01*
X48Y3025D02*
X156Y3025D01*
X1045Y3025D02*
X1153Y3025D01*
X47Y3024D02*
X157Y3024D01*
X1044Y3024D02*
X1154Y3024D01*
X46Y3023D02*
X157Y3023D01*
X1044Y3023D02*
X1154Y3023D01*
X46Y3022D02*
X158Y3022D01*
X1043Y3022D02*
X1155Y3022D01*
X45Y3021D02*
X158Y3021D01*
X1042Y3021D02*
X1156Y3021D01*
X45Y3020D02*
X159Y3020D01*
X1042Y3020D02*
X1156Y3020D01*
X44Y3019D02*
X159Y3019D01*
X1041Y3019D02*
X1157Y3019D01*
X44Y3018D02*
X160Y3018D01*
X1041Y3018D02*
X1157Y3018D01*
X43Y3017D02*
X160Y3017D01*
X1040Y3017D02*
X1158Y3017D01*
X43Y3016D02*
X161Y3016D01*
X1040Y3016D02*
X1158Y3016D01*
X43Y3015D02*
X161Y3015D01*
X1040Y3015D02*
X1158Y3015D01*
X42Y3014D02*
X162Y3014D01*
X1039Y3014D02*
X1159Y3014D01*
X42Y3013D02*
X162Y3013D01*
X1038Y3013D02*
X1159Y3013D01*
X42Y3012D02*
X162Y3012D01*
X1038Y3012D02*
X1159Y3012D01*
X41Y3011D02*
X162Y3011D01*
X1038Y3011D02*
X1159Y3011D01*
X41Y3010D02*
X163Y3010D01*
X1038Y3010D02*
X1160Y3010D01*
X41Y3009D02*
X100Y3009D01*
X105Y3009D02*
X163Y3009D01*
X1038Y3009D02*
X1096Y3009D01*
X1102Y3009D02*
X1160Y3009D01*
X41Y3008D02*
X98Y3008D01*
X107Y3008D02*
X163Y3008D01*
X1037Y3008D02*
X1095Y3008D01*
X1103Y3008D02*
X1160Y3008D01*
X41Y3007D02*
X97Y3007D01*
X108Y3007D02*
X163Y3007D01*
X1037Y3007D02*
X1094Y3007D01*
X1104Y3007D02*
X1160Y3007D01*
X41Y3006D02*
X97Y3006D01*
X109Y3006D02*
X163Y3006D01*
X1037Y3006D02*
X1093Y3006D01*
X1105Y3006D02*
X1160Y3006D01*
X41Y3005D02*
X96Y3005D01*
X109Y3005D02*
X163Y3005D01*
X1037Y3005D02*
X1093Y3005D01*
X1105Y3005D02*
X1160Y3005D01*
X40Y3004D02*
X96Y3004D01*
X109Y3004D02*
X163Y3004D01*
X1037Y3004D02*
X1092Y3004D01*
X1105Y3004D02*
X1160Y3004D01*
X40Y3003D02*
X96Y3003D01*
X109Y3003D02*
X163Y3003D01*
X1037Y3003D02*
X1092Y3003D01*
X1105Y3003D02*
X1160Y3003D01*
X41Y3002D02*
X96Y3002D01*
X109Y3002D02*
X163Y3002D01*
X1038Y3002D02*
X1093Y3002D01*
X1105Y3002D02*
X1160Y3002D01*
X41Y3001D02*
X96Y3001D01*
X109Y3001D02*
X163Y3001D01*
X1038Y3001D02*
X1093Y3001D01*
X1105Y3001D02*
X1160Y3001D01*
X41Y3000D02*
X97Y3000D01*
X108Y3000D02*
X163Y3000D01*
X1038Y3000D02*
X1093Y3000D01*
X1104Y3000D02*
X1160Y3000D01*
X41Y2999D02*
X98Y2999D01*
X107Y2999D02*
X163Y2999D01*
X1038Y2999D02*
X1094Y2999D01*
X1104Y2999D02*
X1160Y2999D01*
X41Y2998D02*
X99Y2998D01*
X106Y2998D02*
X163Y2998D01*
X1038Y2998D02*
X1096Y2998D01*
X1102Y2998D02*
X1160Y2998D01*
X41Y2997D02*
X163Y2997D01*
X1038Y2997D02*
X1160Y2997D01*
X41Y2996D02*
X162Y2996D01*
X1038Y2996D02*
X1160Y2996D01*
X42Y2995D02*
X162Y2995D01*
X1039Y2995D02*
X1159Y2995D01*
X42Y2994D02*
X162Y2994D01*
X1039Y2994D02*
X1159Y2994D01*
X42Y2993D02*
X162Y2993D01*
X1039Y2993D02*
X1159Y2993D01*
X42Y2992D02*
X161Y2992D01*
X1040Y2992D02*
X1158Y2992D01*
X43Y2991D02*
X161Y2991D01*
X1040Y2991D02*
X1158Y2991D01*
X43Y2990D02*
X161Y2990D01*
X1040Y2990D02*
X1158Y2990D01*
X44Y2989D02*
X160Y2989D01*
X1041Y2989D02*
X1157Y2989D01*
X44Y2988D02*
X160Y2988D01*
X1041Y2988D02*
X1157Y2988D01*
X45Y2987D02*
X159Y2987D01*
X1042Y2987D02*
X1156Y2987D01*
X45Y2986D02*
X159Y2986D01*
X1042Y2986D02*
X1156Y2986D01*
X46Y2985D02*
X158Y2985D01*
X1043Y2985D02*
X1155Y2985D01*
X46Y2984D02*
X158Y2984D01*
X1043Y2984D02*
X1155Y2984D01*
X47Y2983D02*
X157Y2983D01*
X1044Y2983D02*
X1154Y2983D01*
X48Y2982D02*
X156Y2982D01*
X1045Y2982D02*
X1153Y2982D01*
X48Y2981D02*
X156Y2981D01*
X1045Y2981D02*
X1153Y2981D01*
X49Y2980D02*
X155Y2980D01*
X1046Y2980D02*
X1152Y2980D01*
X50Y2979D02*
X154Y2979D01*
X1047Y2979D02*
X1151Y2979D01*
X51Y2978D02*
X153Y2978D01*
X1048Y2978D02*
X1150Y2978D01*
X52Y2977D02*
X152Y2977D01*
X1049Y2977D02*
X1149Y2977D01*
X53Y2976D02*
X151Y2976D01*
X1050Y2976D02*
X1148Y2976D01*
X54Y2975D02*
X149Y2975D01*
X1051Y2975D02*
X1147Y2975D01*
X56Y2974D02*
X148Y2974D01*
X1053Y2974D02*
X1145Y2974D01*
X57Y2973D02*
X146Y2973D01*
X1054Y2973D02*
X1144Y2973D01*
X59Y2972D02*
X145Y2972D01*
X1056Y2972D02*
X1142Y2972D01*
X61Y2971D02*
X143Y2971D01*
X1058Y2971D02*
X1140Y2971D01*
X63Y2970D02*
X140Y2970D01*
X1060Y2970D02*
X1138Y2970D01*
X66Y2969D02*
X138Y2969D01*
X1063Y2969D02*
X1135Y2969D01*
X70Y2968D02*
X134Y2968D01*
X1067Y2968D02*
X1131Y2968D01*
X72Y2939D02*
X131Y2939D01*
X1069Y2939D02*
X1128Y2939D01*
X67Y2938D02*
X136Y2938D01*
X1065Y2938D02*
X1133Y2938D01*
X64Y2937D02*
X139Y2937D01*
X1062Y2937D02*
X1136Y2937D01*
X62Y2936D02*
X142Y2936D01*
X1059Y2936D02*
X1139Y2936D01*
X60Y2935D02*
X144Y2935D01*
X1057Y2935D02*
X1141Y2935D01*
X58Y2934D02*
X146Y2934D01*
X1055Y2934D02*
X1143Y2934D01*
X56Y2933D02*
X147Y2933D01*
X1053Y2933D02*
X1145Y2933D01*
X55Y2932D02*
X149Y2932D01*
X1052Y2932D02*
X1146Y2932D01*
X53Y2931D02*
X150Y2931D01*
X1051Y2931D02*
X1147Y2931D01*
X52Y2930D02*
X151Y2930D01*
X1049Y2930D02*
X1148Y2930D01*
X51Y2929D02*
X152Y2929D01*
X1048Y2929D02*
X1150Y2929D01*
X50Y2928D02*
X153Y2928D01*
X1047Y2928D02*
X1151Y2928D01*
X49Y2927D02*
X154Y2927D01*
X1047Y2927D02*
X1151Y2927D01*
X48Y2926D02*
X155Y2926D01*
X1046Y2926D02*
X1152Y2926D01*
X48Y2925D02*
X156Y2925D01*
X1045Y2925D02*
X1153Y2925D01*
X47Y2924D02*
X157Y2924D01*
X1044Y2924D02*
X1154Y2924D01*
X46Y2923D02*
X157Y2923D01*
X1044Y2923D02*
X1154Y2923D01*
X46Y2922D02*
X158Y2922D01*
X1043Y2922D02*
X1155Y2922D01*
X45Y2921D02*
X158Y2921D01*
X1042Y2921D02*
X1156Y2921D01*
X45Y2920D02*
X159Y2920D01*
X1042Y2920D02*
X1156Y2920D01*
X44Y2919D02*
X159Y2919D01*
X1041Y2919D02*
X1157Y2919D01*
X44Y2918D02*
X160Y2918D01*
X1041Y2918D02*
X1157Y2918D01*
X43Y2917D02*
X160Y2917D01*
X1040Y2917D02*
X1158Y2917D01*
X43Y2916D02*
X161Y2916D01*
X1040Y2916D02*
X1158Y2916D01*
X43Y2915D02*
X161Y2915D01*
X1040Y2915D02*
X1158Y2915D01*
X42Y2914D02*
X161Y2914D01*
X1039Y2914D02*
X1159Y2914D01*
X42Y2913D02*
X162Y2913D01*
X1038Y2913D02*
X1159Y2913D01*
X42Y2912D02*
X162Y2912D01*
X1038Y2912D02*
X1159Y2912D01*
X41Y2911D02*
X162Y2911D01*
X1038Y2911D02*
X1159Y2911D01*
X41Y2910D02*
X163Y2910D01*
X1038Y2910D02*
X1160Y2910D01*
X41Y2909D02*
X100Y2909D01*
X105Y2909D02*
X163Y2909D01*
X1038Y2909D02*
X1096Y2909D01*
X1102Y2909D02*
X1160Y2909D01*
X41Y2908D02*
X98Y2908D01*
X107Y2908D02*
X163Y2908D01*
X1037Y2908D02*
X1094Y2908D01*
X1103Y2908D02*
X1160Y2908D01*
X41Y2907D02*
X97Y2907D01*
X108Y2907D02*
X163Y2907D01*
X1037Y2907D02*
X1094Y2907D01*
X1104Y2907D02*
X1160Y2907D01*
X41Y2906D02*
X97Y2906D01*
X109Y2906D02*
X163Y2906D01*
X1037Y2906D02*
X1093Y2906D01*
X1105Y2906D02*
X1160Y2906D01*
X40Y2905D02*
X96Y2905D01*
X109Y2905D02*
X163Y2905D01*
X1037Y2905D02*
X1092Y2905D01*
X1105Y2905D02*
X1160Y2905D01*
X40Y2904D02*
X96Y2904D01*
X109Y2904D02*
X163Y2904D01*
X1037Y2904D02*
X1092Y2904D01*
X1106Y2904D02*
X1160Y2904D01*
X40Y2903D02*
X96Y2903D01*
X109Y2903D02*
X163Y2903D01*
X1037Y2903D02*
X1092Y2903D01*
X1106Y2903D02*
X1160Y2903D01*
X40Y2902D02*
X96Y2902D01*
X109Y2902D02*
X163Y2902D01*
X1038Y2902D02*
X1092Y2902D01*
X1106Y2902D02*
X1160Y2902D01*
X40Y2901D02*
X96Y2901D01*
X109Y2901D02*
X163Y2901D01*
X1038Y2901D02*
X1093Y2901D01*
X1105Y2901D02*
X1160Y2901D01*
X41Y2900D02*
X97Y2900D01*
X108Y2900D02*
X163Y2900D01*
X1038Y2900D02*
X1093Y2900D01*
X1105Y2900D02*
X1160Y2900D01*
X41Y2899D02*
X98Y2899D01*
X107Y2899D02*
X163Y2899D01*
X1038Y2899D02*
X1094Y2899D01*
X1104Y2899D02*
X1160Y2899D01*
X41Y2898D02*
X99Y2898D01*
X106Y2898D02*
X163Y2898D01*
X1038Y2898D02*
X1096Y2898D01*
X1102Y2898D02*
X1160Y2898D01*
X41Y2897D02*
X163Y2897D01*
X1038Y2897D02*
X1160Y2897D01*
X41Y2896D02*
X162Y2896D01*
X1038Y2896D02*
X1160Y2896D01*
X42Y2895D02*
X162Y2895D01*
X1039Y2895D02*
X1159Y2895D01*
X42Y2894D02*
X162Y2894D01*
X1039Y2894D02*
X1159Y2894D01*
X42Y2893D02*
X162Y2893D01*
X1039Y2893D02*
X1159Y2893D01*
X42Y2892D02*
X161Y2892D01*
X1040Y2892D02*
X1158Y2892D01*
X43Y2891D02*
X161Y2891D01*
X1040Y2891D02*
X1158Y2891D01*
X43Y2890D02*
X160Y2890D01*
X1040Y2890D02*
X1158Y2890D01*
X44Y2889D02*
X160Y2889D01*
X1041Y2889D02*
X1157Y2889D01*
X44Y2888D02*
X160Y2888D01*
X1041Y2888D02*
X1157Y2888D01*
X45Y2887D02*
X159Y2887D01*
X1042Y2887D02*
X1156Y2887D01*
X45Y2886D02*
X159Y2886D01*
X1042Y2886D02*
X1156Y2886D01*
X46Y2885D02*
X158Y2885D01*
X1043Y2885D02*
X1155Y2885D01*
X46Y2884D02*
X157Y2884D01*
X1043Y2884D02*
X1155Y2884D01*
X47Y2883D02*
X157Y2883D01*
X1044Y2883D02*
X1154Y2883D01*
X47Y2882D02*
X156Y2882D01*
X1045Y2882D02*
X1153Y2882D01*
X48Y2881D02*
X155Y2881D01*
X1045Y2881D02*
X1153Y2881D01*
X49Y2880D02*
X155Y2880D01*
X1046Y2880D02*
X1152Y2880D01*
X50Y2879D02*
X154Y2879D01*
X1047Y2879D02*
X1151Y2879D01*
X51Y2878D02*
X153Y2878D01*
X1048Y2878D02*
X1150Y2878D01*
X52Y2877D02*
X152Y2877D01*
X1049Y2877D02*
X1149Y2877D01*
X53Y2876D02*
X151Y2876D01*
X1050Y2876D02*
X1148Y2876D01*
X54Y2875D02*
X149Y2875D01*
X1051Y2875D02*
X1147Y2875D01*
X56Y2874D02*
X148Y2874D01*
X1053Y2874D02*
X1145Y2874D01*
X57Y2873D02*
X146Y2873D01*
X1054Y2873D02*
X1144Y2873D01*
X59Y2872D02*
X145Y2872D01*
X1056Y2872D02*
X1142Y2872D01*
X61Y2871D02*
X143Y2871D01*
X1058Y2871D02*
X1140Y2871D01*
X63Y2870D02*
X140Y2870D01*
X1061Y2870D02*
X1137Y2870D01*
X66Y2869D02*
X138Y2869D01*
X1063Y2869D02*
X1135Y2869D01*
X70Y2868D02*
X134Y2868D01*
X1067Y2868D02*
X1131Y2868D01*
X72Y2839D02*
X131Y2839D01*
X1069Y2839D02*
X1129Y2839D01*
X67Y2838D02*
X136Y2838D01*
X1065Y2838D02*
X1133Y2838D01*
X64Y2837D02*
X139Y2837D01*
X1061Y2837D02*
X1137Y2837D01*
X62Y2836D02*
X142Y2836D01*
X1059Y2836D02*
X1139Y2836D01*
X60Y2835D02*
X144Y2835D01*
X1057Y2835D02*
X1141Y2835D01*
X58Y2834D02*
X146Y2834D01*
X1055Y2834D02*
X1143Y2834D01*
X56Y2833D02*
X147Y2833D01*
X1053Y2833D02*
X1145Y2833D01*
X55Y2832D02*
X149Y2832D01*
X1052Y2832D02*
X1146Y2832D01*
X53Y2831D02*
X150Y2831D01*
X1051Y2831D02*
X1147Y2831D01*
X52Y2830D02*
X151Y2830D01*
X1049Y2830D02*
X1149Y2830D01*
X51Y2829D02*
X152Y2829D01*
X1048Y2829D02*
X1150Y2829D01*
X50Y2828D02*
X153Y2828D01*
X1047Y2828D02*
X1151Y2828D01*
X49Y2827D02*
X154Y2827D01*
X1046Y2827D02*
X1151Y2827D01*
X48Y2826D02*
X155Y2826D01*
X1046Y2826D02*
X1152Y2826D01*
X48Y2825D02*
X156Y2825D01*
X1045Y2825D02*
X1153Y2825D01*
X47Y2824D02*
X157Y2824D01*
X1044Y2824D02*
X1154Y2824D01*
X46Y2823D02*
X157Y2823D01*
X1044Y2823D02*
X1154Y2823D01*
X46Y2822D02*
X158Y2822D01*
X1043Y2822D02*
X1155Y2822D01*
X45Y2821D02*
X158Y2821D01*
X1042Y2821D02*
X1156Y2821D01*
X45Y2820D02*
X159Y2820D01*
X1042Y2820D02*
X1156Y2820D01*
X44Y2819D02*
X159Y2819D01*
X1041Y2819D02*
X1157Y2819D01*
X44Y2818D02*
X160Y2818D01*
X1041Y2818D02*
X1157Y2818D01*
X43Y2817D02*
X160Y2817D01*
X1040Y2817D02*
X1158Y2817D01*
X43Y2816D02*
X161Y2816D01*
X1040Y2816D02*
X1158Y2816D01*
X42Y2815D02*
X161Y2815D01*
X1040Y2815D02*
X1158Y2815D01*
X42Y2814D02*
X161Y2814D01*
X1039Y2814D02*
X1159Y2814D01*
X42Y2813D02*
X162Y2813D01*
X1038Y2813D02*
X1159Y2813D01*
X42Y2812D02*
X162Y2812D01*
X1038Y2812D02*
X1159Y2812D01*
X41Y2811D02*
X162Y2811D01*
X1038Y2811D02*
X1159Y2811D01*
X41Y2810D02*
X163Y2810D01*
X1038Y2810D02*
X1160Y2810D01*
X41Y2809D02*
X100Y2809D01*
X105Y2809D02*
X163Y2809D01*
X1038Y2809D02*
X1096Y2809D01*
X1102Y2809D02*
X1160Y2809D01*
X41Y2808D02*
X98Y2808D01*
X107Y2808D02*
X163Y2808D01*
X1037Y2808D02*
X1094Y2808D01*
X1103Y2808D02*
X1160Y2808D01*
X41Y2807D02*
X97Y2807D01*
X108Y2807D02*
X163Y2807D01*
X1037Y2807D02*
X1093Y2807D01*
X1104Y2807D02*
X1160Y2807D01*
X40Y2806D02*
X96Y2806D01*
X109Y2806D02*
X163Y2806D01*
X1037Y2806D02*
X1093Y2806D01*
X1105Y2806D02*
X1160Y2806D01*
X40Y2805D02*
X96Y2805D01*
X109Y2805D02*
X163Y2805D01*
X1037Y2805D02*
X1092Y2805D01*
X1105Y2805D02*
X1160Y2805D01*
X40Y2804D02*
X96Y2804D01*
X109Y2804D02*
X163Y2804D01*
X1037Y2804D02*
X1092Y2804D01*
X1106Y2804D02*
X1160Y2804D01*
X40Y2803D02*
X96Y2803D01*
X109Y2803D02*
X163Y2803D01*
X1037Y2803D02*
X1092Y2803D01*
X1106Y2803D02*
X1160Y2803D01*
X40Y2802D02*
X96Y2802D01*
X109Y2802D02*
X163Y2802D01*
X1038Y2802D02*
X1092Y2802D01*
X1106Y2802D02*
X1160Y2802D01*
X40Y2801D02*
X96Y2801D01*
X109Y2801D02*
X163Y2801D01*
X1038Y2801D02*
X1093Y2801D01*
X1105Y2801D02*
X1160Y2801D01*
X41Y2800D02*
X97Y2800D01*
X108Y2800D02*
X163Y2800D01*
X1038Y2800D02*
X1093Y2800D01*
X1105Y2800D02*
X1160Y2800D01*
X41Y2799D02*
X98Y2799D01*
X107Y2799D02*
X163Y2799D01*
X1038Y2799D02*
X1094Y2799D01*
X1104Y2799D02*
X1160Y2799D01*
X41Y2798D02*
X99Y2798D01*
X106Y2798D02*
X163Y2798D01*
X1038Y2798D02*
X1096Y2798D01*
X1102Y2798D02*
X1160Y2798D01*
X41Y2797D02*
X163Y2797D01*
X1038Y2797D02*
X1160Y2797D01*
X41Y2796D02*
X162Y2796D01*
X1038Y2796D02*
X1160Y2796D01*
X41Y2795D02*
X162Y2795D01*
X1039Y2795D02*
X1159Y2795D01*
X42Y2794D02*
X162Y2794D01*
X1039Y2794D02*
X1159Y2794D01*
X42Y2793D02*
X162Y2793D01*
X1039Y2793D02*
X1159Y2793D01*
X42Y2792D02*
X161Y2792D01*
X1040Y2792D02*
X1158Y2792D01*
X43Y2791D02*
X161Y2791D01*
X1040Y2791D02*
X1158Y2791D01*
X43Y2790D02*
X160Y2790D01*
X1040Y2790D02*
X1158Y2790D01*
X44Y2789D02*
X160Y2789D01*
X1041Y2789D02*
X1157Y2789D01*
X44Y2788D02*
X160Y2788D01*
X1041Y2788D02*
X1157Y2788D01*
X44Y2787D02*
X159Y2787D01*
X1042Y2787D02*
X1156Y2787D01*
X45Y2786D02*
X159Y2786D01*
X1042Y2786D02*
X1156Y2786D01*
X46Y2785D02*
X158Y2785D01*
X1043Y2785D02*
X1155Y2785D01*
X46Y2784D02*
X157Y2784D01*
X1043Y2784D02*
X1155Y2784D01*
X47Y2783D02*
X157Y2783D01*
X1044Y2783D02*
X1154Y2783D01*
X47Y2782D02*
X156Y2782D01*
X1045Y2782D02*
X1153Y2782D01*
X48Y2781D02*
X155Y2781D01*
X1045Y2781D02*
X1153Y2781D01*
X49Y2780D02*
X155Y2780D01*
X1046Y2780D02*
X1152Y2780D01*
X50Y2779D02*
X154Y2779D01*
X1047Y2779D02*
X1151Y2779D01*
X51Y2778D02*
X153Y2778D01*
X1048Y2778D02*
X1150Y2778D01*
X52Y2777D02*
X152Y2777D01*
X1049Y2777D02*
X1149Y2777D01*
X53Y2776D02*
X151Y2776D01*
X1050Y2776D02*
X1148Y2776D01*
X54Y2775D02*
X149Y2775D01*
X1051Y2775D02*
X1146Y2775D01*
X56Y2774D02*
X148Y2774D01*
X1053Y2774D02*
X1145Y2774D01*
X57Y2773D02*
X146Y2773D01*
X1054Y2773D02*
X1143Y2773D01*
X59Y2772D02*
X145Y2772D01*
X1056Y2772D02*
X1142Y2772D01*
X61Y2771D02*
X143Y2771D01*
X1058Y2771D02*
X1140Y2771D01*
X63Y2770D02*
X140Y2770D01*
X1061Y2770D02*
X1137Y2770D01*
X66Y2769D02*
X137Y2769D01*
X1063Y2769D02*
X1135Y2769D01*
X70Y2768D02*
X133Y2768D01*
X1067Y2768D02*
X1131Y2768D01*
X72Y2739D02*
X132Y2739D01*
X1069Y2739D02*
X1129Y2739D01*
X67Y2738D02*
X136Y2738D01*
X1064Y2738D02*
X1134Y2738D01*
X64Y2737D02*
X139Y2737D01*
X1061Y2737D02*
X1137Y2737D01*
X62Y2736D02*
X142Y2736D01*
X1059Y2736D02*
X1139Y2736D01*
X60Y2735D02*
X144Y2735D01*
X1057Y2735D02*
X1141Y2735D01*
X58Y2734D02*
X146Y2734D01*
X1055Y2734D02*
X1143Y2734D01*
X56Y2733D02*
X147Y2733D01*
X1053Y2733D02*
X1145Y2733D01*
X55Y2732D02*
X149Y2732D01*
X1052Y2732D02*
X1146Y2732D01*
X53Y2731D02*
X150Y2731D01*
X1051Y2731D02*
X1147Y2731D01*
X52Y2730D02*
X151Y2730D01*
X1049Y2730D02*
X1149Y2730D01*
X51Y2729D02*
X152Y2729D01*
X1048Y2729D02*
X1150Y2729D01*
X50Y2728D02*
X153Y2728D01*
X1047Y2728D02*
X1151Y2728D01*
X49Y2727D02*
X154Y2727D01*
X1046Y2727D02*
X1152Y2727D01*
X48Y2726D02*
X155Y2726D01*
X1046Y2726D02*
X1152Y2726D01*
X48Y2725D02*
X156Y2725D01*
X1045Y2725D02*
X1153Y2725D01*
X47Y2724D02*
X157Y2724D01*
X1044Y2724D02*
X1154Y2724D01*
X46Y2723D02*
X157Y2723D01*
X1044Y2723D02*
X1154Y2723D01*
X46Y2722D02*
X158Y2722D01*
X1043Y2722D02*
X1155Y2722D01*
X45Y2721D02*
X158Y2721D01*
X1042Y2721D02*
X1156Y2721D01*
X45Y2720D02*
X159Y2720D01*
X1042Y2720D02*
X1156Y2720D01*
X44Y2719D02*
X159Y2719D01*
X1041Y2719D02*
X1157Y2719D01*
X44Y2718D02*
X160Y2718D01*
X1041Y2718D02*
X1157Y2718D01*
X43Y2717D02*
X160Y2717D01*
X1040Y2717D02*
X1158Y2717D01*
X43Y2716D02*
X161Y2716D01*
X1040Y2716D02*
X1158Y2716D01*
X43Y2715D02*
X161Y2715D01*
X1040Y2715D02*
X1158Y2715D01*
X42Y2714D02*
X161Y2714D01*
X1039Y2714D02*
X1159Y2714D01*
X42Y2713D02*
X162Y2713D01*
X1038Y2713D02*
X1159Y2713D01*
X42Y2712D02*
X162Y2712D01*
X1038Y2712D02*
X1159Y2712D01*
X41Y2711D02*
X162Y2711D01*
X1038Y2711D02*
X1159Y2711D01*
X41Y2710D02*
X163Y2710D01*
X1038Y2710D02*
X1160Y2710D01*
X41Y2709D02*
X100Y2709D01*
X105Y2709D02*
X163Y2709D01*
X1038Y2709D02*
X1096Y2709D01*
X1102Y2709D02*
X1160Y2709D01*
X41Y2708D02*
X98Y2708D01*
X107Y2708D02*
X163Y2708D01*
X1037Y2708D02*
X1094Y2708D01*
X1104Y2708D02*
X1160Y2708D01*
X41Y2707D02*
X97Y2707D01*
X108Y2707D02*
X163Y2707D01*
X1037Y2707D02*
X1093Y2707D01*
X1104Y2707D02*
X1160Y2707D01*
X41Y2706D02*
X96Y2706D01*
X109Y2706D02*
X163Y2706D01*
X1037Y2706D02*
X1093Y2706D01*
X1105Y2706D02*
X1160Y2706D01*
X40Y2705D02*
X96Y2705D01*
X109Y2705D02*
X163Y2705D01*
X1037Y2705D02*
X1092Y2705D01*
X1105Y2705D02*
X1160Y2705D01*
X40Y2704D02*
X96Y2704D01*
X109Y2704D02*
X163Y2704D01*
X1037Y2704D02*
X1092Y2704D01*
X1106Y2704D02*
X1160Y2704D01*
X40Y2703D02*
X96Y2703D01*
X109Y2703D02*
X163Y2703D01*
X1037Y2703D02*
X1092Y2703D01*
X1106Y2703D02*
X1160Y2703D01*
X40Y2702D02*
X96Y2702D01*
X109Y2702D02*
X163Y2702D01*
X1038Y2702D02*
X1092Y2702D01*
X1105Y2702D02*
X1160Y2702D01*
X41Y2701D02*
X96Y2701D01*
X109Y2701D02*
X163Y2701D01*
X1038Y2701D02*
X1093Y2701D01*
X1105Y2701D02*
X1160Y2701D01*
X41Y2700D02*
X97Y2700D01*
X108Y2700D02*
X163Y2700D01*
X1038Y2700D02*
X1093Y2700D01*
X1105Y2700D02*
X1160Y2700D01*
X41Y2699D02*
X98Y2699D01*
X107Y2699D02*
X163Y2699D01*
X1038Y2699D02*
X1094Y2699D01*
X1104Y2699D02*
X1160Y2699D01*
X41Y2698D02*
X99Y2698D01*
X106Y2698D02*
X163Y2698D01*
X1038Y2698D02*
X1096Y2698D01*
X1102Y2698D02*
X1160Y2698D01*
X41Y2697D02*
X163Y2697D01*
X1038Y2697D02*
X1160Y2697D01*
X41Y2696D02*
X162Y2696D01*
X1038Y2696D02*
X1160Y2696D01*
X42Y2695D02*
X162Y2695D01*
X1039Y2695D02*
X1159Y2695D01*
X42Y2694D02*
X162Y2694D01*
X1039Y2694D02*
X1159Y2694D01*
X42Y2693D02*
X162Y2693D01*
X1039Y2693D02*
X1159Y2693D01*
X42Y2692D02*
X161Y2692D01*
X1040Y2692D02*
X1158Y2692D01*
X43Y2691D02*
X161Y2691D01*
X1040Y2691D02*
X1158Y2691D01*
X43Y2690D02*
X160Y2690D01*
X1040Y2690D02*
X1158Y2690D01*
X44Y2689D02*
X160Y2689D01*
X1041Y2689D02*
X1157Y2689D01*
X44Y2688D02*
X160Y2688D01*
X1041Y2688D02*
X1157Y2688D01*
X45Y2687D02*
X159Y2687D01*
X1042Y2687D02*
X1156Y2687D01*
X45Y2686D02*
X159Y2686D01*
X1042Y2686D02*
X1156Y2686D01*
X46Y2685D02*
X158Y2685D01*
X1043Y2685D02*
X1155Y2685D01*
X46Y2684D02*
X157Y2684D01*
X1043Y2684D02*
X1155Y2684D01*
X47Y2683D02*
X157Y2683D01*
X1044Y2683D02*
X1154Y2683D01*
X48Y2682D02*
X156Y2682D01*
X1045Y2682D02*
X1153Y2682D01*
X48Y2681D02*
X155Y2681D01*
X1045Y2681D02*
X1153Y2681D01*
X49Y2680D02*
X155Y2680D01*
X1046Y2680D02*
X1152Y2680D01*
X50Y2679D02*
X154Y2679D01*
X1047Y2679D02*
X1151Y2679D01*
X51Y2678D02*
X153Y2678D01*
X1048Y2678D02*
X1150Y2678D01*
X52Y2677D02*
X152Y2677D01*
X1049Y2677D02*
X1149Y2677D01*
X53Y2676D02*
X151Y2676D01*
X1050Y2676D02*
X1148Y2676D01*
X54Y2675D02*
X149Y2675D01*
X1052Y2675D02*
X1146Y2675D01*
X56Y2674D02*
X148Y2674D01*
X1053Y2674D02*
X1145Y2674D01*
X57Y2673D02*
X146Y2673D01*
X1055Y2673D02*
X1143Y2673D01*
X59Y2672D02*
X145Y2672D01*
X1056Y2672D02*
X1142Y2672D01*
X61Y2671D02*
X142Y2671D01*
X1058Y2671D02*
X1140Y2671D01*
X63Y2670D02*
X140Y2670D01*
X1061Y2670D02*
X1137Y2670D01*
X66Y2669D02*
X137Y2669D01*
X1063Y2669D02*
X1135Y2669D01*
X70Y2668D02*
X133Y2668D01*
X1068Y2668D02*
X1130Y2668D01*
X72Y2639D02*
X132Y2639D01*
X1069Y2639D02*
X1129Y2639D01*
X67Y2638D02*
X136Y2638D01*
X1064Y2638D02*
X1134Y2638D01*
X64Y2637D02*
X139Y2637D01*
X1061Y2637D02*
X1137Y2637D01*
X62Y2636D02*
X142Y2636D01*
X1059Y2636D02*
X1139Y2636D01*
X59Y2635D02*
X144Y2635D01*
X1057Y2635D02*
X1141Y2635D01*
X58Y2634D02*
X146Y2634D01*
X1055Y2634D02*
X1143Y2634D01*
X56Y2633D02*
X148Y2633D01*
X1053Y2633D02*
X1145Y2633D01*
X55Y2632D02*
X149Y2632D01*
X1052Y2632D02*
X1146Y2632D01*
X53Y2631D02*
X150Y2631D01*
X1051Y2631D02*
X1147Y2631D01*
X52Y2630D02*
X151Y2630D01*
X1049Y2630D02*
X1149Y2630D01*
X51Y2629D02*
X153Y2629D01*
X1048Y2629D02*
X1150Y2629D01*
X50Y2628D02*
X153Y2628D01*
X1047Y2628D02*
X1151Y2628D01*
X49Y2627D02*
X154Y2627D01*
X1046Y2627D02*
X1152Y2627D01*
X48Y2626D02*
X155Y2626D01*
X1046Y2626D02*
X1152Y2626D01*
X48Y2625D02*
X156Y2625D01*
X1045Y2625D02*
X1153Y2625D01*
X47Y2624D02*
X157Y2624D01*
X1044Y2624D02*
X1154Y2624D01*
X46Y2623D02*
X157Y2623D01*
X1044Y2623D02*
X1154Y2623D01*
X46Y2622D02*
X158Y2622D01*
X1043Y2622D02*
X1155Y2622D01*
X45Y2621D02*
X158Y2621D01*
X1042Y2621D02*
X1156Y2621D01*
X45Y2620D02*
X159Y2620D01*
X1042Y2620D02*
X1156Y2620D01*
X44Y2619D02*
X159Y2619D01*
X1041Y2619D02*
X1157Y2619D01*
X44Y2618D02*
X160Y2618D01*
X1041Y2618D02*
X1157Y2618D01*
X43Y2617D02*
X160Y2617D01*
X1040Y2617D02*
X1158Y2617D01*
X43Y2616D02*
X161Y2616D01*
X1040Y2616D02*
X1158Y2616D01*
X42Y2615D02*
X161Y2615D01*
X1040Y2615D02*
X1158Y2615D01*
X42Y2614D02*
X161Y2614D01*
X1039Y2614D02*
X1159Y2614D01*
X42Y2613D02*
X162Y2613D01*
X1038Y2613D02*
X1159Y2613D01*
X42Y2612D02*
X162Y2612D01*
X1038Y2612D02*
X1159Y2612D01*
X41Y2611D02*
X162Y2611D01*
X1038Y2611D02*
X1159Y2611D01*
X41Y2610D02*
X163Y2610D01*
X1038Y2610D02*
X1160Y2610D01*
X41Y2609D02*
X100Y2609D01*
X106Y2609D02*
X163Y2609D01*
X1038Y2609D02*
X1096Y2609D01*
X1102Y2609D02*
X1160Y2609D01*
X41Y2608D02*
X98Y2608D01*
X107Y2608D02*
X163Y2608D01*
X1037Y2608D02*
X1095Y2608D01*
X1103Y2608D02*
X1160Y2608D01*
X41Y2607D02*
X97Y2607D01*
X108Y2607D02*
X163Y2607D01*
X1037Y2607D02*
X1094Y2607D01*
X1104Y2607D02*
X1160Y2607D01*
X40Y2606D02*
X96Y2606D01*
X109Y2606D02*
X163Y2606D01*
X1037Y2606D02*
X1093Y2606D01*
X1105Y2606D02*
X1160Y2606D01*
X40Y2605D02*
X96Y2605D01*
X109Y2605D02*
X163Y2605D01*
X1037Y2605D02*
X1093Y2605D01*
X1105Y2605D02*
X1160Y2605D01*
X40Y2604D02*
X96Y2604D01*
X109Y2604D02*
X163Y2604D01*
X1037Y2604D02*
X1092Y2604D01*
X1105Y2604D02*
X1160Y2604D01*
X40Y2603D02*
X96Y2603D01*
X109Y2603D02*
X163Y2603D01*
X1038Y2603D02*
X1092Y2603D01*
X1105Y2603D02*
X1160Y2603D01*
X40Y2602D02*
X96Y2602D01*
X109Y2602D02*
X163Y2602D01*
X1038Y2602D02*
X1093Y2602D01*
X1105Y2602D02*
X1160Y2602D01*
X40Y2601D02*
X96Y2601D01*
X109Y2601D02*
X163Y2601D01*
X1038Y2601D02*
X1093Y2601D01*
X1105Y2601D02*
X1160Y2601D01*
X41Y2600D02*
X97Y2600D01*
X108Y2600D02*
X163Y2600D01*
X1038Y2600D02*
X1094Y2600D01*
X1104Y2600D02*
X1160Y2600D01*
X41Y2599D02*
X98Y2599D01*
X107Y2599D02*
X163Y2599D01*
X1038Y2599D02*
X1095Y2599D01*
X1103Y2599D02*
X1160Y2599D01*
X41Y2598D02*
X99Y2598D01*
X106Y2598D02*
X163Y2598D01*
X1038Y2598D02*
X1096Y2598D01*
X1102Y2598D02*
X1160Y2598D01*
X41Y2597D02*
X163Y2597D01*
X1038Y2597D02*
X1160Y2597D01*
X41Y2596D02*
X162Y2596D01*
X1038Y2596D02*
X1160Y2596D01*
X41Y2595D02*
X162Y2595D01*
X1039Y2595D02*
X1159Y2595D01*
X42Y2594D02*
X162Y2594D01*
X1039Y2594D02*
X1159Y2594D01*
X42Y2593D02*
X162Y2593D01*
X1039Y2593D02*
X1159Y2593D01*
X42Y2592D02*
X161Y2592D01*
X1040Y2592D02*
X1158Y2592D01*
X43Y2591D02*
X161Y2591D01*
X1040Y2591D02*
X1158Y2591D01*
X43Y2590D02*
X160Y2590D01*
X1040Y2590D02*
X1158Y2590D01*
X44Y2589D02*
X160Y2589D01*
X1041Y2589D02*
X1157Y2589D01*
X44Y2588D02*
X160Y2588D01*
X1041Y2588D02*
X1157Y2588D01*
X44Y2587D02*
X159Y2587D01*
X1042Y2587D02*
X1156Y2587D01*
X45Y2586D02*
X159Y2586D01*
X1042Y2586D02*
X1156Y2586D01*
X46Y2585D02*
X158Y2585D01*
X1043Y2585D02*
X1155Y2585D01*
X46Y2584D02*
X157Y2584D01*
X1043Y2584D02*
X1155Y2584D01*
X47Y2583D02*
X157Y2583D01*
X1044Y2583D02*
X1154Y2583D01*
X48Y2582D02*
X156Y2582D01*
X1045Y2582D02*
X1153Y2582D01*
X48Y2581D02*
X155Y2581D01*
X1045Y2581D02*
X1153Y2581D01*
X49Y2580D02*
X155Y2580D01*
X1046Y2580D02*
X1152Y2580D01*
X50Y2579D02*
X154Y2579D01*
X1047Y2579D02*
X1151Y2579D01*
X51Y2578D02*
X153Y2578D01*
X1048Y2578D02*
X1150Y2578D01*
X52Y2577D02*
X152Y2577D01*
X1049Y2577D02*
X1149Y2577D01*
X53Y2576D02*
X151Y2576D01*
X1050Y2576D02*
X1148Y2576D01*
X54Y2575D02*
X149Y2575D01*
X1052Y2575D02*
X1146Y2575D01*
X56Y2574D02*
X148Y2574D01*
X1053Y2574D02*
X1145Y2574D01*
X57Y2573D02*
X146Y2573D01*
X1055Y2573D02*
X1143Y2573D01*
X59Y2572D02*
X144Y2572D01*
X1056Y2572D02*
X1142Y2572D01*
X61Y2571D02*
X142Y2571D01*
X1058Y2571D02*
X1140Y2571D01*
X63Y2570D02*
X140Y2570D01*
X1061Y2570D02*
X1137Y2570D01*
X66Y2569D02*
X137Y2569D01*
X1064Y2569D02*
X1134Y2569D01*
X71Y2568D02*
X133Y2568D01*
X1068Y2568D02*
X1130Y2568D01*
X72Y2539D02*
X132Y2539D01*
X1069Y2539D02*
X1129Y2539D01*
X67Y2538D02*
X137Y2538D01*
X1064Y2538D02*
X1134Y2538D01*
X64Y2537D02*
X140Y2537D01*
X1061Y2537D02*
X1137Y2537D01*
X62Y2536D02*
X142Y2536D01*
X1059Y2536D02*
X1139Y2536D01*
X59Y2535D02*
X144Y2535D01*
X1057Y2535D02*
X1141Y2535D01*
X58Y2534D02*
X146Y2534D01*
X1055Y2534D02*
X1143Y2534D01*
X56Y2533D02*
X148Y2533D01*
X1053Y2533D02*
X1145Y2533D01*
X55Y2532D02*
X149Y2532D01*
X1052Y2532D02*
X1146Y2532D01*
X53Y2531D02*
X150Y2531D01*
X1050Y2531D02*
X1147Y2531D01*
X52Y2530D02*
X151Y2530D01*
X1049Y2530D02*
X1149Y2530D01*
X51Y2529D02*
X153Y2529D01*
X1048Y2529D02*
X1150Y2529D01*
X50Y2528D02*
X153Y2528D01*
X1047Y2528D02*
X1151Y2528D01*
X49Y2527D02*
X154Y2527D01*
X1046Y2527D02*
X1152Y2527D01*
X48Y2526D02*
X155Y2526D01*
X1046Y2526D02*
X1152Y2526D01*
X48Y2525D02*
X156Y2525D01*
X1045Y2525D02*
X1153Y2525D01*
X47Y2524D02*
X157Y2524D01*
X1044Y2524D02*
X1154Y2524D01*
X46Y2523D02*
X157Y2523D01*
X1043Y2523D02*
X1154Y2523D01*
X46Y2522D02*
X158Y2522D01*
X1043Y2522D02*
X1155Y2522D01*
X45Y2521D02*
X158Y2521D01*
X1042Y2521D02*
X1156Y2521D01*
X45Y2520D02*
X159Y2520D01*
X1042Y2520D02*
X1156Y2520D01*
X44Y2519D02*
X159Y2519D01*
X1041Y2519D02*
X1157Y2519D01*
X44Y2518D02*
X160Y2518D01*
X1041Y2518D02*
X1157Y2518D01*
X43Y2517D02*
X160Y2517D01*
X1040Y2517D02*
X1158Y2517D01*
X43Y2516D02*
X161Y2516D01*
X1040Y2516D02*
X1158Y2516D01*
X43Y2515D02*
X161Y2515D01*
X1040Y2515D02*
X1158Y2515D01*
X42Y2514D02*
X161Y2514D01*
X1039Y2514D02*
X1159Y2514D01*
X42Y2513D02*
X162Y2513D01*
X1038Y2513D02*
X1159Y2513D01*
X42Y2512D02*
X162Y2512D01*
X1038Y2512D02*
X1159Y2512D01*
X41Y2511D02*
X162Y2511D01*
X1038Y2511D02*
X1159Y2511D01*
X41Y2510D02*
X163Y2510D01*
X1038Y2510D02*
X1160Y2510D01*
X41Y2509D02*
X99Y2509D01*
X106Y2509D02*
X163Y2509D01*
X1038Y2509D02*
X1096Y2509D01*
X1102Y2509D02*
X1160Y2509D01*
X41Y2508D02*
X98Y2508D01*
X107Y2508D02*
X163Y2508D01*
X1037Y2508D02*
X1095Y2508D01*
X1103Y2508D02*
X1160Y2508D01*
X41Y2507D02*
X97Y2507D01*
X108Y2507D02*
X163Y2507D01*
X1037Y2507D02*
X1094Y2507D01*
X1104Y2507D02*
X1160Y2507D01*
X41Y2506D02*
X97Y2506D01*
X109Y2506D02*
X163Y2506D01*
X1037Y2506D02*
X1093Y2506D01*
X1105Y2506D02*
X1160Y2506D01*
X40Y2505D02*
X96Y2505D01*
X109Y2505D02*
X163Y2505D01*
X1037Y2505D02*
X1093Y2505D01*
X1105Y2505D02*
X1160Y2505D01*
X40Y2504D02*
X96Y2504D01*
X109Y2504D02*
X163Y2504D01*
X1037Y2504D02*
X1092Y2504D01*
X1105Y2504D02*
X1160Y2504D01*
X40Y2503D02*
X96Y2503D01*
X109Y2503D02*
X163Y2503D01*
X1038Y2503D02*
X1092Y2503D01*
X1105Y2503D02*
X1160Y2503D01*
X40Y2502D02*
X96Y2502D01*
X109Y2502D02*
X163Y2502D01*
X1038Y2502D02*
X1093Y2502D01*
X1105Y2502D02*
X1160Y2502D01*
X41Y2501D02*
X96Y2501D01*
X109Y2501D02*
X163Y2501D01*
X1038Y2501D02*
X1093Y2501D01*
X1105Y2501D02*
X1160Y2501D01*
X41Y2500D02*
X97Y2500D01*
X108Y2500D02*
X163Y2500D01*
X1038Y2500D02*
X1094Y2500D01*
X1104Y2500D02*
X1160Y2500D01*
X41Y2499D02*
X98Y2499D01*
X107Y2499D02*
X163Y2499D01*
X1038Y2499D02*
X1095Y2499D01*
X1103Y2499D02*
X1160Y2499D01*
X41Y2498D02*
X99Y2498D01*
X106Y2498D02*
X163Y2498D01*
X1038Y2498D02*
X1096Y2498D01*
X1102Y2498D02*
X1160Y2498D01*
X41Y2497D02*
X163Y2497D01*
X1038Y2497D02*
X1160Y2497D01*
X41Y2496D02*
X162Y2496D01*
X1038Y2496D02*
X1160Y2496D01*
X42Y2495D02*
X162Y2495D01*
X1039Y2495D02*
X1159Y2495D01*
X42Y2494D02*
X162Y2494D01*
X1039Y2494D02*
X1159Y2494D01*
X42Y2493D02*
X162Y2493D01*
X1039Y2493D02*
X1159Y2493D01*
X42Y2492D02*
X161Y2492D01*
X1040Y2492D02*
X1158Y2492D01*
X43Y2491D02*
X161Y2491D01*
X1040Y2491D02*
X1158Y2491D01*
X43Y2490D02*
X160Y2490D01*
X1040Y2490D02*
X1158Y2490D01*
X44Y2489D02*
X160Y2489D01*
X1041Y2489D02*
X1157Y2489D01*
X44Y2488D02*
X160Y2488D01*
X1041Y2488D02*
X1157Y2488D01*
X45Y2487D02*
X159Y2487D01*
X1042Y2487D02*
X1156Y2487D01*
X45Y2486D02*
X159Y2486D01*
X1042Y2486D02*
X1156Y2486D01*
X46Y2485D02*
X158Y2485D01*
X1043Y2485D02*
X1155Y2485D01*
X46Y2484D02*
X157Y2484D01*
X1043Y2484D02*
X1155Y2484D01*
X47Y2483D02*
X157Y2483D01*
X1044Y2483D02*
X1154Y2483D01*
X48Y2482D02*
X156Y2482D01*
X1045Y2482D02*
X1153Y2482D01*
X48Y2481D02*
X155Y2481D01*
X1045Y2481D02*
X1152Y2481D01*
X49Y2480D02*
X155Y2480D01*
X1046Y2480D02*
X1152Y2480D01*
X50Y2479D02*
X154Y2479D01*
X1047Y2479D02*
X1151Y2479D01*
X51Y2478D02*
X153Y2478D01*
X1048Y2478D02*
X1150Y2478D01*
X52Y2477D02*
X152Y2477D01*
X1049Y2477D02*
X1149Y2477D01*
X53Y2476D02*
X151Y2476D01*
X1050Y2476D02*
X1148Y2476D01*
X54Y2475D02*
X149Y2475D01*
X1052Y2475D02*
X1146Y2475D01*
X56Y2474D02*
X148Y2474D01*
X1053Y2474D02*
X1145Y2474D01*
X57Y2473D02*
X146Y2473D01*
X1055Y2473D02*
X1143Y2473D01*
X59Y2472D02*
X144Y2472D01*
X1056Y2472D02*
X1142Y2472D01*
X61Y2471D02*
X142Y2471D01*
X1058Y2471D02*
X1140Y2471D01*
X64Y2470D02*
X140Y2470D01*
X1061Y2470D02*
X1137Y2470D01*
X66Y2469D02*
X137Y2469D01*
X1064Y2469D02*
X1134Y2469D01*
X71Y2468D02*
X133Y2468D01*
X1068Y2468D02*
X1130Y2468D01*
X71Y2439D02*
X132Y2439D01*
X1069Y2439D02*
X1129Y2439D01*
X67Y2438D02*
X137Y2438D01*
X1064Y2438D02*
X1134Y2438D01*
X64Y2437D02*
X140Y2437D01*
X1061Y2437D02*
X1137Y2437D01*
X62Y2436D02*
X142Y2436D01*
X1059Y2436D02*
X1139Y2436D01*
X59Y2435D02*
X144Y2435D01*
X1057Y2435D02*
X1141Y2435D01*
X58Y2434D02*
X146Y2434D01*
X1055Y2434D02*
X1143Y2434D01*
X56Y2433D02*
X148Y2433D01*
X1053Y2433D02*
X1145Y2433D01*
X55Y2432D02*
X149Y2432D01*
X1052Y2432D02*
X1146Y2432D01*
X53Y2431D02*
X150Y2431D01*
X1050Y2431D02*
X1148Y2431D01*
X52Y2430D02*
X151Y2430D01*
X1049Y2430D02*
X1149Y2430D01*
X51Y2429D02*
X153Y2429D01*
X1048Y2429D02*
X1150Y2429D01*
X50Y2428D02*
X154Y2428D01*
X1047Y2428D02*
X1151Y2428D01*
X49Y2427D02*
X154Y2427D01*
X1046Y2427D02*
X1152Y2427D01*
X48Y2426D02*
X155Y2426D01*
X1046Y2426D02*
X1152Y2426D01*
X48Y2425D02*
X156Y2425D01*
X1045Y2425D02*
X1153Y2425D01*
X47Y2424D02*
X157Y2424D01*
X1044Y2424D02*
X1154Y2424D01*
X46Y2423D02*
X157Y2423D01*
X1043Y2423D02*
X1154Y2423D01*
X46Y2422D02*
X158Y2422D01*
X1043Y2422D02*
X1155Y2422D01*
X45Y2421D02*
X159Y2421D01*
X1042Y2421D02*
X1156Y2421D01*
X45Y2420D02*
X159Y2420D01*
X1042Y2420D02*
X1156Y2420D01*
X44Y2419D02*
X159Y2419D01*
X1041Y2419D02*
X1157Y2419D01*
X44Y2418D02*
X160Y2418D01*
X1041Y2418D02*
X1157Y2418D01*
X43Y2417D02*
X160Y2417D01*
X1040Y2417D02*
X1158Y2417D01*
X43Y2416D02*
X161Y2416D01*
X1040Y2416D02*
X1158Y2416D01*
X42Y2415D02*
X161Y2415D01*
X1040Y2415D02*
X1158Y2415D01*
X42Y2414D02*
X162Y2414D01*
X1039Y2414D02*
X1159Y2414D01*
X42Y2413D02*
X162Y2413D01*
X1039Y2413D02*
X1159Y2413D01*
X42Y2412D02*
X162Y2412D01*
X1039Y2412D02*
X1159Y2412D01*
X41Y2411D02*
X162Y2411D01*
X1038Y2411D02*
X1159Y2411D01*
X41Y2410D02*
X163Y2410D01*
X1038Y2410D02*
X1160Y2410D01*
X41Y2409D02*
X99Y2409D01*
X106Y2409D02*
X163Y2409D01*
X1038Y2409D02*
X1096Y2409D01*
X1102Y2409D02*
X1160Y2409D01*
X41Y2408D02*
X98Y2408D01*
X107Y2408D02*
X163Y2408D01*
X1038Y2408D02*
X1094Y2408D01*
X1104Y2408D02*
X1160Y2408D01*
X41Y2407D02*
X97Y2407D01*
X108Y2407D02*
X163Y2407D01*
X1038Y2407D02*
X1093Y2407D01*
X1105Y2407D02*
X1160Y2407D01*
X41Y2406D02*
X96Y2406D01*
X109Y2406D02*
X163Y2406D01*
X1038Y2406D02*
X1093Y2406D01*
X1105Y2406D02*
X1160Y2406D01*
X40Y2405D02*
X96Y2405D01*
X109Y2405D02*
X163Y2405D01*
X1038Y2405D02*
X1092Y2405D01*
X1106Y2405D02*
X1160Y2405D01*
X40Y2404D02*
X96Y2404D01*
X109Y2404D02*
X163Y2404D01*
X1037Y2404D02*
X1092Y2404D01*
X1106Y2404D02*
X1160Y2404D01*
X40Y2403D02*
X96Y2403D01*
X109Y2403D02*
X163Y2403D01*
X1038Y2403D02*
X1092Y2403D01*
X1106Y2403D02*
X1160Y2403D01*
X40Y2402D02*
X96Y2402D01*
X109Y2402D02*
X163Y2402D01*
X1038Y2402D02*
X1092Y2402D01*
X1106Y2402D02*
X1160Y2402D01*
X41Y2401D02*
X97Y2401D01*
X109Y2401D02*
X163Y2401D01*
X1038Y2401D02*
X1093Y2401D01*
X1105Y2401D02*
X1160Y2401D01*
X41Y2400D02*
X97Y2400D01*
X108Y2400D02*
X163Y2400D01*
X1038Y2400D02*
X1093Y2400D01*
X1105Y2400D02*
X1160Y2400D01*
X41Y2399D02*
X98Y2399D01*
X107Y2399D02*
X163Y2399D01*
X1038Y2399D02*
X1094Y2399D01*
X1104Y2399D02*
X1160Y2399D01*
X41Y2398D02*
X99Y2398D01*
X106Y2398D02*
X163Y2398D01*
X1038Y2398D02*
X1096Y2398D01*
X1102Y2398D02*
X1160Y2398D01*
X41Y2397D02*
X163Y2397D01*
X1038Y2397D02*
X1160Y2397D01*
X41Y2396D02*
X162Y2396D01*
X1038Y2396D02*
X1160Y2396D01*
X42Y2395D02*
X162Y2395D01*
X1039Y2395D02*
X1159Y2395D01*
X42Y2394D02*
X162Y2394D01*
X1039Y2394D02*
X1159Y2394D01*
X42Y2393D02*
X162Y2393D01*
X1039Y2393D02*
X1159Y2393D01*
X42Y2392D02*
X161Y2392D01*
X1040Y2392D02*
X1158Y2392D01*
X43Y2391D02*
X161Y2391D01*
X1040Y2391D02*
X1158Y2391D01*
X43Y2390D02*
X160Y2390D01*
X1040Y2390D02*
X1158Y2390D01*
X44Y2389D02*
X160Y2389D01*
X1041Y2389D02*
X1157Y2389D01*
X44Y2388D02*
X160Y2388D01*
X1041Y2388D02*
X1157Y2388D01*
X45Y2387D02*
X159Y2387D01*
X1042Y2387D02*
X1156Y2387D01*
X45Y2386D02*
X159Y2386D01*
X1042Y2386D02*
X1156Y2386D01*
X46Y2385D02*
X158Y2385D01*
X1043Y2385D02*
X1155Y2385D01*
X46Y2384D02*
X157Y2384D01*
X1043Y2384D02*
X1155Y2384D01*
X47Y2383D02*
X157Y2383D01*
X1044Y2383D02*
X1154Y2383D01*
X48Y2382D02*
X156Y2382D01*
X1045Y2382D02*
X1153Y2382D01*
X48Y2381D02*
X155Y2381D01*
X1045Y2381D02*
X1152Y2381D01*
X49Y2380D02*
X155Y2380D01*
X1046Y2380D02*
X1152Y2380D01*
X50Y2379D02*
X154Y2379D01*
X1047Y2379D02*
X1151Y2379D01*
X51Y2378D02*
X153Y2378D01*
X1048Y2378D02*
X1150Y2378D01*
X52Y2377D02*
X152Y2377D01*
X1049Y2377D02*
X1149Y2377D01*
X53Y2376D02*
X150Y2376D01*
X1050Y2376D02*
X1148Y2376D01*
X54Y2375D02*
X149Y2375D01*
X1052Y2375D02*
X1146Y2375D01*
X56Y2374D02*
X148Y2374D01*
X1053Y2374D02*
X1145Y2374D01*
X57Y2373D02*
X146Y2373D01*
X1055Y2373D02*
X1143Y2373D01*
X59Y2372D02*
X144Y2372D01*
X1056Y2372D02*
X1142Y2372D01*
X61Y2371D02*
X142Y2371D01*
X1058Y2371D02*
X1140Y2371D01*
X64Y2370D02*
X140Y2370D01*
X1061Y2370D02*
X1137Y2370D01*
X67Y2369D02*
X137Y2369D01*
X1064Y2369D02*
X1134Y2369D01*
X71Y2368D02*
X133Y2368D01*
X1068Y2368D02*
X1130Y2368D01*
X71Y2339D02*
X132Y2339D01*
X1069Y2339D02*
X1129Y2339D01*
X67Y2338D02*
X137Y2338D01*
X1064Y2338D02*
X1134Y2338D01*
X64Y2337D02*
X140Y2337D01*
X1061Y2337D02*
X1137Y2337D01*
X61Y2336D02*
X142Y2336D01*
X1059Y2336D02*
X1139Y2336D01*
X59Y2335D02*
X144Y2335D01*
X1057Y2335D02*
X1141Y2335D01*
X58Y2334D02*
X146Y2334D01*
X1055Y2334D02*
X1143Y2334D01*
X56Y2333D02*
X148Y2333D01*
X1053Y2333D02*
X1145Y2333D01*
X55Y2332D02*
X149Y2332D01*
X1052Y2332D02*
X1146Y2332D01*
X53Y2331D02*
X150Y2331D01*
X1050Y2331D02*
X1148Y2331D01*
X52Y2330D02*
X152Y2330D01*
X1049Y2330D02*
X1149Y2330D01*
X51Y2329D02*
X153Y2329D01*
X1048Y2329D02*
X1150Y2329D01*
X50Y2328D02*
X154Y2328D01*
X1047Y2328D02*
X1151Y2328D01*
X49Y2327D02*
X154Y2327D01*
X1046Y2327D02*
X1152Y2327D01*
X48Y2326D02*
X155Y2326D01*
X1046Y2326D02*
X1152Y2326D01*
X48Y2325D02*
X156Y2325D01*
X1045Y2325D02*
X1153Y2325D01*
X47Y2324D02*
X157Y2324D01*
X1044Y2324D02*
X1154Y2324D01*
X46Y2323D02*
X157Y2323D01*
X1043Y2323D02*
X1154Y2323D01*
X46Y2322D02*
X158Y2322D01*
X1043Y2322D02*
X1155Y2322D01*
X45Y2321D02*
X158Y2321D01*
X1042Y2321D02*
X1156Y2321D01*
X45Y2320D02*
X159Y2320D01*
X1042Y2320D02*
X1156Y2320D01*
X44Y2319D02*
X159Y2319D01*
X1041Y2319D02*
X1157Y2319D01*
X44Y2318D02*
X160Y2318D01*
X1041Y2318D02*
X1157Y2318D01*
X43Y2317D02*
X160Y2317D01*
X1040Y2317D02*
X1158Y2317D01*
X43Y2316D02*
X161Y2316D01*
X1040Y2316D02*
X1158Y2316D01*
X42Y2315D02*
X161Y2315D01*
X1040Y2315D02*
X1158Y2315D01*
X42Y2314D02*
X162Y2314D01*
X1039Y2314D02*
X1159Y2314D01*
X42Y2313D02*
X162Y2313D01*
X1039Y2313D02*
X1159Y2313D01*
X42Y2312D02*
X162Y2312D01*
X1039Y2312D02*
X1159Y2312D01*
X41Y2311D02*
X162Y2311D01*
X1038Y2311D02*
X1160Y2311D01*
X41Y2310D02*
X163Y2310D01*
X1038Y2310D02*
X1160Y2310D01*
X41Y2309D02*
X100Y2309D01*
X105Y2309D02*
X163Y2309D01*
X1038Y2309D02*
X1096Y2309D01*
X1102Y2309D02*
X1160Y2309D01*
X41Y2308D02*
X98Y2308D01*
X107Y2308D02*
X163Y2308D01*
X1038Y2308D02*
X1094Y2308D01*
X1103Y2308D02*
X1160Y2308D01*
X41Y2307D02*
X97Y2307D01*
X108Y2307D02*
X163Y2307D01*
X1038Y2307D02*
X1094Y2307D01*
X1104Y2307D02*
X1160Y2307D01*
X40Y2306D02*
X97Y2306D01*
X109Y2306D02*
X163Y2306D01*
X1038Y2306D02*
X1093Y2306D01*
X1105Y2306D02*
X1160Y2306D01*
X40Y2305D02*
X96Y2305D01*
X109Y2305D02*
X163Y2305D01*
X1038Y2305D02*
X1093Y2305D01*
X1105Y2305D02*
X1160Y2305D01*
X40Y2304D02*
X96Y2304D01*
X109Y2304D02*
X163Y2304D01*
X1038Y2304D02*
X1092Y2304D01*
X1105Y2304D02*
X1160Y2304D01*
X40Y2303D02*
X96Y2303D01*
X109Y2303D02*
X163Y2303D01*
X1038Y2303D02*
X1092Y2303D01*
X1105Y2303D02*
X1160Y2303D01*
X40Y2302D02*
X96Y2302D01*
X109Y2302D02*
X163Y2302D01*
X1038Y2302D02*
X1093Y2302D01*
X1105Y2302D02*
X1160Y2302D01*
X40Y2301D02*
X97Y2301D01*
X108Y2301D02*
X163Y2301D01*
X1038Y2301D02*
X1093Y2301D01*
X1105Y2301D02*
X1160Y2301D01*
X41Y2300D02*
X97Y2300D01*
X108Y2300D02*
X163Y2300D01*
X1038Y2300D02*
X1094Y2300D01*
X1104Y2300D02*
X1160Y2300D01*
X41Y2299D02*
X98Y2299D01*
X107Y2299D02*
X163Y2299D01*
X1038Y2299D02*
X1094Y2299D01*
X1103Y2299D02*
X1160Y2299D01*
X41Y2298D02*
X100Y2298D01*
X105Y2298D02*
X163Y2298D01*
X1038Y2298D02*
X1096Y2298D01*
X1102Y2298D02*
X1160Y2298D01*
X41Y2297D02*
X163Y2297D01*
X1038Y2297D02*
X1160Y2297D01*
X41Y2296D02*
X162Y2296D01*
X1038Y2296D02*
X1160Y2296D01*
X41Y2295D02*
X162Y2295D01*
X1039Y2295D02*
X1159Y2295D01*
X42Y2294D02*
X162Y2294D01*
X1039Y2294D02*
X1159Y2294D01*
X42Y2293D02*
X162Y2293D01*
X1039Y2293D02*
X1159Y2293D01*
X42Y2292D02*
X161Y2292D01*
X1040Y2292D02*
X1158Y2292D01*
X43Y2291D02*
X161Y2291D01*
X1040Y2291D02*
X1158Y2291D01*
X43Y2290D02*
X160Y2290D01*
X1040Y2290D02*
X1158Y2290D01*
X44Y2289D02*
X160Y2289D01*
X1041Y2289D02*
X1157Y2289D01*
X44Y2288D02*
X160Y2288D01*
X1041Y2288D02*
X1157Y2288D01*
X45Y2287D02*
X159Y2287D01*
X1042Y2287D02*
X1156Y2287D01*
X45Y2286D02*
X159Y2286D01*
X1042Y2286D02*
X1156Y2286D01*
X46Y2285D02*
X158Y2285D01*
X1043Y2285D02*
X1155Y2285D01*
X46Y2284D02*
X157Y2284D01*
X1043Y2284D02*
X1155Y2284D01*
X47Y2283D02*
X157Y2283D01*
X1044Y2283D02*
X1154Y2283D01*
X48Y2282D02*
X156Y2282D01*
X1045Y2282D02*
X1153Y2282D01*
X48Y2281D02*
X155Y2281D01*
X1046Y2281D02*
X1152Y2281D01*
X49Y2280D02*
X154Y2280D01*
X1046Y2280D02*
X1152Y2280D01*
X50Y2279D02*
X154Y2279D01*
X1047Y2279D02*
X1151Y2279D01*
X51Y2278D02*
X153Y2278D01*
X1048Y2278D02*
X1150Y2278D01*
X52Y2277D02*
X152Y2277D01*
X1049Y2277D02*
X1149Y2277D01*
X53Y2276D02*
X150Y2276D01*
X1050Y2276D02*
X1148Y2276D01*
X54Y2275D02*
X149Y2275D01*
X1052Y2275D02*
X1146Y2275D01*
X56Y2274D02*
X148Y2274D01*
X1053Y2274D02*
X1145Y2274D01*
X57Y2273D02*
X146Y2273D01*
X1055Y2273D02*
X1143Y2273D01*
X59Y2272D02*
X144Y2272D01*
X1056Y2272D02*
X1142Y2272D01*
X61Y2271D02*
X142Y2271D01*
X1059Y2271D02*
X1139Y2271D01*
X64Y2270D02*
X140Y2270D01*
X1061Y2270D02*
X1137Y2270D01*
X67Y2269D02*
X137Y2269D01*
X1064Y2269D02*
X1134Y2269D01*
X71Y2268D02*
X133Y2268D01*
X1068Y2268D02*
X1130Y2268D01*
X71Y2239D02*
X132Y2239D01*
X1068Y2239D02*
X1130Y2239D01*
X67Y2238D02*
X137Y2238D01*
X1064Y2238D02*
X1134Y2238D01*
X64Y2237D02*
X140Y2237D01*
X1061Y2237D02*
X1137Y2237D01*
X61Y2236D02*
X142Y2236D01*
X1059Y2236D02*
X1139Y2236D01*
X59Y2235D02*
X144Y2235D01*
X1056Y2235D02*
X1141Y2235D01*
X58Y2234D02*
X146Y2234D01*
X1055Y2234D02*
X1143Y2234D01*
X56Y2233D02*
X148Y2233D01*
X1053Y2233D02*
X1145Y2233D01*
X55Y2232D02*
X149Y2232D01*
X1052Y2232D02*
X1146Y2232D01*
X53Y2231D02*
X150Y2231D01*
X1050Y2231D02*
X1148Y2231D01*
X52Y2230D02*
X152Y2230D01*
X1049Y2230D02*
X1149Y2230D01*
X51Y2229D02*
X153Y2229D01*
X1048Y2229D02*
X1150Y2229D01*
X50Y2228D02*
X154Y2228D01*
X1047Y2228D02*
X1151Y2228D01*
X49Y2227D02*
X154Y2227D01*
X1046Y2227D02*
X1152Y2227D01*
X48Y2226D02*
X155Y2226D01*
X1046Y2226D02*
X1152Y2226D01*
X48Y2225D02*
X156Y2225D01*
X1045Y2225D02*
X1153Y2225D01*
X47Y2224D02*
X157Y2224D01*
X1044Y2224D02*
X1154Y2224D01*
X46Y2223D02*
X157Y2223D01*
X1043Y2223D02*
X1154Y2223D01*
X46Y2222D02*
X158Y2222D01*
X1043Y2222D02*
X1155Y2222D01*
X45Y2221D02*
X159Y2221D01*
X1042Y2221D02*
X1156Y2221D01*
X45Y2220D02*
X159Y2220D01*
X1042Y2220D02*
X1156Y2220D01*
X44Y2219D02*
X160Y2219D01*
X1041Y2219D02*
X1157Y2219D01*
X44Y2218D02*
X160Y2218D01*
X1041Y2218D02*
X1157Y2218D01*
X43Y2217D02*
X160Y2217D01*
X1040Y2217D02*
X1158Y2217D01*
X43Y2216D02*
X161Y2216D01*
X1040Y2216D02*
X1158Y2216D01*
X42Y2215D02*
X161Y2215D01*
X1040Y2215D02*
X1158Y2215D01*
X42Y2214D02*
X162Y2214D01*
X1039Y2214D02*
X1159Y2214D01*
X42Y2213D02*
X162Y2213D01*
X1039Y2213D02*
X1159Y2213D01*
X42Y2212D02*
X162Y2212D01*
X1039Y2212D02*
X1159Y2212D01*
X41Y2211D02*
X162Y2211D01*
X1038Y2211D02*
X1160Y2211D01*
X41Y2210D02*
X163Y2210D01*
X1038Y2210D02*
X1160Y2210D01*
X41Y2209D02*
X99Y2209D01*
X106Y2209D02*
X163Y2209D01*
X1038Y2209D02*
X1096Y2209D01*
X1102Y2209D02*
X1160Y2209D01*
X41Y2208D02*
X98Y2208D01*
X107Y2208D02*
X163Y2208D01*
X1038Y2208D02*
X1094Y2208D01*
X1103Y2208D02*
X1160Y2208D01*
X41Y2207D02*
X97Y2207D01*
X108Y2207D02*
X163Y2207D01*
X1038Y2207D02*
X1094Y2207D01*
X1104Y2207D02*
X1160Y2207D01*
X41Y2206D02*
X96Y2206D01*
X109Y2206D02*
X163Y2206D01*
X1038Y2206D02*
X1093Y2206D01*
X1105Y2206D02*
X1160Y2206D01*
X40Y2205D02*
X96Y2205D01*
X109Y2205D02*
X163Y2205D01*
X1038Y2205D02*
X1093Y2205D01*
X1105Y2205D02*
X1160Y2205D01*
X40Y2204D02*
X96Y2204D01*
X109Y2204D02*
X163Y2204D01*
X1038Y2204D02*
X1092Y2204D01*
X1105Y2204D02*
X1160Y2204D01*
X40Y2203D02*
X96Y2203D01*
X109Y2203D02*
X163Y2203D01*
X1038Y2203D02*
X1092Y2203D01*
X1105Y2203D02*
X1160Y2203D01*
X40Y2202D02*
X96Y2202D01*
X109Y2202D02*
X163Y2202D01*
X1038Y2202D02*
X1093Y2202D01*
X1105Y2202D02*
X1160Y2202D01*
X41Y2201D02*
X97Y2201D01*
X109Y2201D02*
X163Y2201D01*
X1038Y2201D02*
X1093Y2201D01*
X1105Y2201D02*
X1160Y2201D01*
X41Y2200D02*
X97Y2200D01*
X108Y2200D02*
X163Y2200D01*
X1038Y2200D02*
X1094Y2200D01*
X1104Y2200D02*
X1160Y2200D01*
X41Y2199D02*
X98Y2199D01*
X107Y2199D02*
X163Y2199D01*
X1038Y2199D02*
X1095Y2199D01*
X1103Y2199D02*
X1160Y2199D01*
X41Y2198D02*
X100Y2198D01*
X106Y2198D02*
X163Y2198D01*
X1038Y2198D02*
X1096Y2198D01*
X1102Y2198D02*
X1160Y2198D01*
X41Y2197D02*
X163Y2197D01*
X1038Y2197D02*
X1160Y2197D01*
X41Y2196D02*
X162Y2196D01*
X1038Y2196D02*
X1160Y2196D01*
X42Y2195D02*
X162Y2195D01*
X1039Y2195D02*
X1159Y2195D01*
X42Y2194D02*
X162Y2194D01*
X1039Y2194D02*
X1159Y2194D01*
X42Y2193D02*
X162Y2193D01*
X1039Y2193D02*
X1159Y2193D01*
X42Y2192D02*
X161Y2192D01*
X1040Y2192D02*
X1158Y2192D01*
X43Y2191D02*
X161Y2191D01*
X1040Y2191D02*
X1158Y2191D01*
X43Y2190D02*
X160Y2190D01*
X1040Y2190D02*
X1158Y2190D01*
X44Y2189D02*
X160Y2189D01*
X1041Y2189D02*
X1157Y2189D01*
X44Y2188D02*
X160Y2188D01*
X1041Y2188D02*
X1157Y2188D01*
X45Y2187D02*
X159Y2187D01*
X1042Y2187D02*
X1156Y2187D01*
X45Y2186D02*
X159Y2186D01*
X1042Y2186D02*
X1156Y2186D01*
X46Y2185D02*
X158Y2185D01*
X1043Y2185D02*
X1155Y2185D01*
X46Y2184D02*
X157Y2184D01*
X1043Y2184D02*
X1155Y2184D01*
X47Y2183D02*
X157Y2183D01*
X1044Y2183D02*
X1154Y2183D01*
X48Y2182D02*
X156Y2182D01*
X1045Y2182D02*
X1153Y2182D01*
X48Y2181D02*
X155Y2181D01*
X1046Y2181D02*
X1152Y2181D01*
X49Y2180D02*
X154Y2180D01*
X1046Y2180D02*
X1152Y2180D01*
X50Y2179D02*
X154Y2179D01*
X1047Y2179D02*
X1151Y2179D01*
X51Y2178D02*
X153Y2178D01*
X1048Y2178D02*
X1150Y2178D01*
X52Y2177D02*
X152Y2177D01*
X1049Y2177D02*
X1149Y2177D01*
X53Y2176D02*
X150Y2176D01*
X1050Y2176D02*
X1148Y2176D01*
X55Y2175D02*
X149Y2175D01*
X1052Y2175D02*
X1146Y2175D01*
X56Y2174D02*
X148Y2174D01*
X1053Y2174D02*
X1145Y2174D01*
X58Y2173D02*
X146Y2173D01*
X1055Y2173D02*
X1143Y2173D01*
X59Y2172D02*
X144Y2172D01*
X1056Y2172D02*
X1141Y2172D01*
X61Y2171D02*
X142Y2171D01*
X1059Y2171D02*
X1139Y2171D01*
X64Y2170D02*
X140Y2170D01*
X1061Y2170D02*
X1137Y2170D01*
X67Y2169D02*
X137Y2169D01*
X1064Y2169D02*
X1134Y2169D01*
X71Y2168D02*
X132Y2168D01*
X1068Y2168D02*
X1130Y2168D01*
X71Y2139D02*
X133Y2139D01*
X1068Y2139D02*
X1130Y2139D01*
X67Y2138D02*
X137Y2138D01*
X1064Y2138D02*
X1134Y2138D01*
X64Y2137D02*
X140Y2137D01*
X1061Y2137D02*
X1137Y2137D01*
X61Y2136D02*
X142Y2136D01*
X1059Y2136D02*
X1139Y2136D01*
X59Y2135D02*
X144Y2135D01*
X1056Y2135D02*
X1142Y2135D01*
X58Y2134D02*
X146Y2134D01*
X1055Y2134D02*
X1143Y2134D01*
X56Y2133D02*
X148Y2133D01*
X1053Y2133D02*
X1145Y2133D01*
X55Y2132D02*
X149Y2132D01*
X1052Y2132D02*
X1146Y2132D01*
X53Y2131D02*
X150Y2131D01*
X1050Y2131D02*
X1148Y2131D01*
X52Y2130D02*
X152Y2130D01*
X1049Y2130D02*
X1149Y2130D01*
X51Y2129D02*
X153Y2129D01*
X1048Y2129D02*
X1150Y2129D01*
X50Y2128D02*
X154Y2128D01*
X1047Y2128D02*
X1151Y2128D01*
X49Y2127D02*
X154Y2127D01*
X1046Y2127D02*
X1152Y2127D01*
X48Y2126D02*
X155Y2126D01*
X1046Y2126D02*
X1152Y2126D01*
X48Y2125D02*
X156Y2125D01*
X1045Y2125D02*
X1153Y2125D01*
X47Y2124D02*
X157Y2124D01*
X1044Y2124D02*
X1154Y2124D01*
X46Y2123D02*
X157Y2123D01*
X1043Y2123D02*
X1155Y2123D01*
X46Y2122D02*
X158Y2122D01*
X1043Y2122D02*
X1155Y2122D01*
X45Y2121D02*
X159Y2121D01*
X1042Y2121D02*
X1156Y2121D01*
X45Y2120D02*
X159Y2120D01*
X1042Y2120D02*
X1156Y2120D01*
X44Y2119D02*
X160Y2119D01*
X1041Y2119D02*
X1157Y2119D01*
X44Y2118D02*
X160Y2118D01*
X1041Y2118D02*
X1157Y2118D01*
X43Y2117D02*
X160Y2117D01*
X1040Y2117D02*
X1158Y2117D01*
X43Y2116D02*
X161Y2116D01*
X1040Y2116D02*
X1158Y2116D01*
X42Y2115D02*
X161Y2115D01*
X1040Y2115D02*
X1158Y2115D01*
X42Y2114D02*
X162Y2114D01*
X1039Y2114D02*
X1159Y2114D01*
X42Y2113D02*
X162Y2113D01*
X1039Y2113D02*
X1159Y2113D01*
X42Y2112D02*
X162Y2112D01*
X1039Y2112D02*
X1159Y2112D01*
X41Y2111D02*
X162Y2111D01*
X1038Y2111D02*
X1160Y2111D01*
X41Y2110D02*
X163Y2110D01*
X1038Y2110D02*
X1160Y2110D01*
X41Y2109D02*
X99Y2109D01*
X106Y2109D02*
X163Y2109D01*
X1038Y2109D02*
X1096Y2109D01*
X1102Y2109D02*
X1160Y2109D01*
X41Y2108D02*
X98Y2108D01*
X107Y2108D02*
X163Y2108D01*
X1038Y2108D02*
X1094Y2108D01*
X1103Y2108D02*
X1160Y2108D01*
X41Y2107D02*
X97Y2107D01*
X108Y2107D02*
X163Y2107D01*
X1038Y2107D02*
X1094Y2107D01*
X1104Y2107D02*
X1160Y2107D01*
X41Y2106D02*
X96Y2106D01*
X109Y2106D02*
X163Y2106D01*
X1038Y2106D02*
X1093Y2106D01*
X1105Y2106D02*
X1160Y2106D01*
X40Y2105D02*
X96Y2105D01*
X109Y2105D02*
X163Y2105D01*
X1037Y2105D02*
X1093Y2105D01*
X1105Y2105D02*
X1160Y2105D01*
X40Y2104D02*
X96Y2104D01*
X109Y2104D02*
X163Y2104D01*
X1037Y2104D02*
X1092Y2104D01*
X1105Y2104D02*
X1160Y2104D01*
X40Y2103D02*
X96Y2103D01*
X109Y2103D02*
X163Y2103D01*
X1038Y2103D02*
X1092Y2103D01*
X1105Y2103D02*
X1160Y2103D01*
X40Y2102D02*
X96Y2102D01*
X109Y2102D02*
X163Y2102D01*
X1038Y2102D02*
X1093Y2102D01*
X1105Y2102D02*
X1160Y2102D01*
X41Y2101D02*
X97Y2101D01*
X109Y2101D02*
X163Y2101D01*
X1038Y2101D02*
X1093Y2101D01*
X1105Y2101D02*
X1160Y2101D01*
X41Y2100D02*
X97Y2100D01*
X108Y2100D02*
X163Y2100D01*
X1038Y2100D02*
X1094Y2100D01*
X1104Y2100D02*
X1160Y2100D01*
X41Y2099D02*
X98Y2099D01*
X107Y2099D02*
X163Y2099D01*
X1038Y2099D02*
X1095Y2099D01*
X1103Y2099D02*
X1160Y2099D01*
X41Y2098D02*
X100Y2098D01*
X106Y2098D02*
X163Y2098D01*
X1038Y2098D02*
X1096Y2098D01*
X1102Y2098D02*
X1160Y2098D01*
X41Y2097D02*
X163Y2097D01*
X1038Y2097D02*
X1160Y2097D01*
X41Y2096D02*
X162Y2096D01*
X1038Y2096D02*
X1160Y2096D01*
X42Y2095D02*
X162Y2095D01*
X1039Y2095D02*
X1159Y2095D01*
X42Y2094D02*
X162Y2094D01*
X1039Y2094D02*
X1159Y2094D01*
X42Y2093D02*
X162Y2093D01*
X1039Y2093D02*
X1159Y2093D01*
X42Y2092D02*
X161Y2092D01*
X1040Y2092D02*
X1158Y2092D01*
X43Y2091D02*
X161Y2091D01*
X1040Y2091D02*
X1158Y2091D01*
X43Y2090D02*
X160Y2090D01*
X1040Y2090D02*
X1158Y2090D01*
X44Y2089D02*
X160Y2089D01*
X1041Y2089D02*
X1157Y2089D01*
X44Y2088D02*
X160Y2088D01*
X1041Y2088D02*
X1157Y2088D01*
X45Y2087D02*
X159Y2087D01*
X1042Y2087D02*
X1156Y2087D01*
X45Y2086D02*
X159Y2086D01*
X1042Y2086D02*
X1156Y2086D01*
X46Y2085D02*
X158Y2085D01*
X1043Y2085D02*
X1155Y2085D01*
X46Y2084D02*
X157Y2084D01*
X1043Y2084D02*
X1155Y2084D01*
X47Y2083D02*
X157Y2083D01*
X1044Y2083D02*
X1154Y2083D01*
X48Y2082D02*
X156Y2082D01*
X1045Y2082D02*
X1153Y2082D01*
X48Y2081D02*
X155Y2081D01*
X1046Y2081D02*
X1152Y2081D01*
X49Y2080D02*
X154Y2080D01*
X1046Y2080D02*
X1152Y2080D01*
X50Y2079D02*
X154Y2079D01*
X1047Y2079D02*
X1151Y2079D01*
X51Y2078D02*
X153Y2078D01*
X1048Y2078D02*
X1150Y2078D01*
X52Y2077D02*
X152Y2077D01*
X1049Y2077D02*
X1149Y2077D01*
X53Y2076D02*
X150Y2076D01*
X1050Y2076D02*
X1148Y2076D01*
X55Y2075D02*
X149Y2075D01*
X1052Y2075D02*
X1146Y2075D01*
X56Y2074D02*
X148Y2074D01*
X1053Y2074D02*
X1145Y2074D01*
X58Y2073D02*
X146Y2073D01*
X1055Y2073D02*
X1143Y2073D01*
X59Y2072D02*
X144Y2072D01*
X1057Y2072D02*
X1141Y2072D01*
X61Y2071D02*
X142Y2071D01*
X1059Y2071D02*
X1139Y2071D01*
X64Y2070D02*
X140Y2070D01*
X1061Y2070D02*
X1137Y2070D01*
X67Y2069D02*
X137Y2069D01*
X1064Y2069D02*
X1134Y2069D01*
X71Y2068D02*
X132Y2068D01*
X1068Y2068D02*
X1129Y2068D01*
X71Y2039D02*
X133Y2039D01*
X1069Y2039D02*
X1131Y2039D01*
X67Y2038D02*
X137Y2038D01*
X1065Y2038D02*
X1135Y2038D01*
X64Y2037D02*
X140Y2037D01*
X1062Y2037D02*
X1138Y2037D01*
X61Y2036D02*
X142Y2036D01*
X1059Y2036D02*
X1141Y2036D01*
X59Y2035D02*
X144Y2035D01*
X1057Y2035D02*
X1143Y2035D01*
X57Y2034D02*
X146Y2034D01*
X1056Y2034D02*
X1144Y2034D01*
X56Y2033D02*
X148Y2033D01*
X1054Y2033D02*
X1146Y2033D01*
X54Y2032D02*
X149Y2032D01*
X1053Y2032D02*
X1147Y2032D01*
X53Y2031D02*
X150Y2031D01*
X1051Y2031D02*
X1149Y2031D01*
X52Y2030D02*
X152Y2030D01*
X1050Y2030D02*
X1150Y2030D01*
X51Y2029D02*
X153Y2029D01*
X1049Y2029D02*
X1151Y2029D01*
X50Y2028D02*
X154Y2028D01*
X1048Y2028D02*
X1152Y2028D01*
X49Y2027D02*
X155Y2027D01*
X1047Y2027D02*
X1153Y2027D01*
X48Y2026D02*
X155Y2026D01*
X1047Y2026D02*
X1153Y2026D01*
X48Y2025D02*
X156Y2025D01*
X1046Y2025D02*
X1154Y2025D01*
X47Y2024D02*
X157Y2024D01*
X1045Y2024D02*
X1155Y2024D01*
X46Y2023D02*
X157Y2023D01*
X1044Y2023D02*
X1156Y2023D01*
X46Y2022D02*
X158Y2022D01*
X1044Y2022D02*
X1156Y2022D01*
X45Y2021D02*
X159Y2021D01*
X1043Y2021D02*
X1157Y2021D01*
X45Y2020D02*
X159Y2020D01*
X1043Y2020D02*
X1157Y2020D01*
X44Y2019D02*
X160Y2019D01*
X1042Y2019D02*
X1158Y2019D01*
X44Y2018D02*
X160Y2018D01*
X1042Y2018D02*
X1158Y2018D01*
X43Y2017D02*
X160Y2017D01*
X1041Y2017D02*
X1159Y2017D01*
X43Y2016D02*
X161Y2016D01*
X1041Y2016D02*
X1159Y2016D01*
X42Y2015D02*
X161Y2015D01*
X1041Y2015D02*
X1159Y2015D01*
X42Y2014D02*
X162Y2014D01*
X1040Y2014D02*
X1160Y2014D01*
X42Y2013D02*
X162Y2013D01*
X1040Y2013D02*
X1160Y2013D01*
X42Y2012D02*
X162Y2012D01*
X1040Y2012D02*
X1160Y2012D01*
X41Y2011D02*
X162Y2011D01*
X1039Y2011D02*
X1161Y2011D01*
X41Y2010D02*
X163Y2010D01*
X1039Y2010D02*
X1161Y2010D01*
X41Y2009D02*
X99Y2009D01*
X106Y2009D02*
X163Y2009D01*
X1039Y2009D02*
X1097Y2009D01*
X1103Y2009D02*
X1161Y2009D01*
X41Y2008D02*
X98Y2008D01*
X107Y2008D02*
X163Y2008D01*
X1039Y2008D02*
X1095Y2008D01*
X1104Y2008D02*
X1161Y2008D01*
X41Y2007D02*
X97Y2007D01*
X108Y2007D02*
X163Y2007D01*
X1039Y2007D02*
X1095Y2007D01*
X1105Y2007D02*
X1161Y2007D01*
X41Y2006D02*
X96Y2006D01*
X109Y2006D02*
X163Y2006D01*
X1039Y2006D02*
X1094Y2006D01*
X1106Y2006D02*
X1161Y2006D01*
X40Y2005D02*
X96Y2005D01*
X109Y2005D02*
X163Y2005D01*
X1039Y2005D02*
X1094Y2005D01*
X1106Y2005D02*
X1161Y2005D01*
X40Y2004D02*
X96Y2004D01*
X109Y2004D02*
X163Y2004D01*
X1039Y2004D02*
X1094Y2004D01*
X1106Y2004D02*
X1161Y2004D01*
X40Y2003D02*
X96Y2003D01*
X109Y2003D02*
X163Y2003D01*
X1038Y2003D02*
X1094Y2003D01*
X1106Y2003D02*
X1161Y2003D01*
X40Y2002D02*
X96Y2002D01*
X109Y2002D02*
X163Y2002D01*
X1038Y2002D02*
X1094Y2002D01*
X1106Y2002D02*
X1161Y2002D01*
X41Y2001D02*
X97Y2001D01*
X109Y2001D02*
X163Y2001D01*
X1038Y2001D02*
X1094Y2001D01*
X1106Y2001D02*
X1161Y2001D01*
X41Y2000D02*
X97Y2000D01*
X108Y2000D02*
X163Y2000D01*
X1039Y2000D02*
X1095Y2000D01*
X1105Y2000D02*
X1161Y2000D01*
X41Y1999D02*
X98Y1999D01*
X107Y1999D02*
X163Y1999D01*
X1039Y1999D02*
X1096Y1999D01*
X1104Y1999D02*
X1161Y1999D01*
X41Y1998D02*
X100Y1998D01*
X106Y1998D02*
X163Y1998D01*
X1039Y1998D02*
X1097Y1998D01*
X1103Y1998D02*
X1161Y1998D01*
X41Y1997D02*
X163Y1997D01*
X1039Y1997D02*
X1161Y1997D01*
X41Y1996D02*
X162Y1996D01*
X1039Y1996D02*
X1161Y1996D01*
X42Y1995D02*
X162Y1995D01*
X1040Y1995D02*
X1160Y1995D01*
X42Y1994D02*
X162Y1994D01*
X1040Y1994D02*
X1160Y1994D01*
X42Y1993D02*
X162Y1993D01*
X1040Y1993D02*
X1160Y1993D01*
X42Y1992D02*
X161Y1992D01*
X1041Y1992D02*
X1159Y1992D01*
X43Y1991D02*
X161Y1991D01*
X1041Y1991D02*
X1159Y1991D01*
X43Y1990D02*
X160Y1990D01*
X1041Y1990D02*
X1159Y1990D01*
X44Y1989D02*
X160Y1989D01*
X1042Y1989D02*
X1158Y1989D01*
X44Y1988D02*
X159Y1988D01*
X1042Y1988D02*
X1158Y1988D01*
X45Y1987D02*
X159Y1987D01*
X1043Y1987D02*
X1157Y1987D01*
X45Y1986D02*
X159Y1986D01*
X1043Y1986D02*
X1157Y1986D01*
X46Y1985D02*
X158Y1985D01*
X1044Y1985D02*
X1156Y1985D01*
X46Y1984D02*
X157Y1984D01*
X1044Y1984D02*
X1156Y1984D01*
X47Y1983D02*
X157Y1983D01*
X1045Y1983D02*
X1155Y1983D01*
X48Y1982D02*
X156Y1982D01*
X1046Y1982D02*
X1154Y1982D01*
X48Y1981D02*
X155Y1981D01*
X1047Y1981D02*
X1153Y1981D01*
X49Y1980D02*
X154Y1980D01*
X1047Y1980D02*
X1153Y1980D01*
X50Y1979D02*
X154Y1979D01*
X1048Y1979D02*
X1152Y1979D01*
X51Y1978D02*
X153Y1978D01*
X1049Y1978D02*
X1151Y1978D01*
X52Y1977D02*
X151Y1977D01*
X1050Y1977D02*
X1150Y1977D01*
X53Y1976D02*
X150Y1976D01*
X1051Y1976D02*
X1149Y1976D01*
X55Y1975D02*
X149Y1975D01*
X1053Y1975D02*
X1147Y1975D01*
X56Y1974D02*
X148Y1974D01*
X1054Y1974D02*
X1146Y1974D01*
X58Y1973D02*
X146Y1973D01*
X1056Y1973D02*
X1144Y1973D01*
X59Y1972D02*
X144Y1972D01*
X1058Y1972D02*
X1142Y1972D01*
X62Y1971D02*
X142Y1971D01*
X1060Y1971D02*
X1140Y1971D01*
X64Y1970D02*
X140Y1970D01*
X1062Y1970D02*
X1138Y1970D01*
X67Y1969D02*
X137Y1969D01*
X1065Y1969D02*
X1135Y1969D01*
X72Y1968D02*
X132Y1968D01*
X1070Y1968D02*
X1130Y1968D01*
X71Y1939D02*
X133Y1939D01*
X1068Y1939D02*
X1130Y1939D01*
X66Y1938D02*
X137Y1938D01*
X1064Y1938D02*
X1134Y1938D01*
X64Y1937D02*
X140Y1937D01*
X1061Y1937D02*
X1137Y1937D01*
X61Y1936D02*
X142Y1936D01*
X1058Y1936D02*
X1140Y1936D01*
X59Y1935D02*
X144Y1935D01*
X1056Y1935D02*
X1142Y1935D01*
X57Y1934D02*
X146Y1934D01*
X1055Y1934D02*
X1143Y1934D01*
X56Y1933D02*
X148Y1933D01*
X1053Y1933D02*
X1145Y1933D01*
X54Y1932D02*
X149Y1932D01*
X1052Y1932D02*
X1146Y1932D01*
X53Y1931D02*
X150Y1931D01*
X1050Y1931D02*
X1148Y1931D01*
X52Y1930D02*
X152Y1930D01*
X1049Y1930D02*
X1149Y1930D01*
X51Y1929D02*
X153Y1929D01*
X1048Y1929D02*
X1150Y1929D01*
X50Y1928D02*
X154Y1928D01*
X1047Y1928D02*
X1151Y1928D01*
X49Y1927D02*
X155Y1927D01*
X1046Y1927D02*
X1152Y1927D01*
X48Y1926D02*
X155Y1926D01*
X1045Y1926D02*
X1152Y1926D01*
X48Y1925D02*
X156Y1925D01*
X1045Y1925D02*
X1153Y1925D01*
X47Y1924D02*
X157Y1924D01*
X1044Y1924D02*
X1154Y1924D01*
X46Y1923D02*
X157Y1923D01*
X1043Y1923D02*
X1155Y1923D01*
X46Y1922D02*
X158Y1922D01*
X1043Y1922D02*
X1155Y1922D01*
X45Y1921D02*
X159Y1921D01*
X1042Y1921D02*
X1156Y1921D01*
X44Y1920D02*
X159Y1920D01*
X1042Y1920D02*
X1156Y1920D01*
X44Y1919D02*
X160Y1919D01*
X1041Y1919D02*
X1157Y1919D01*
X44Y1918D02*
X160Y1918D01*
X1041Y1918D02*
X1157Y1918D01*
X43Y1917D02*
X160Y1917D01*
X1040Y1917D02*
X1158Y1917D01*
X43Y1916D02*
X161Y1916D01*
X1040Y1916D02*
X1158Y1916D01*
X42Y1915D02*
X161Y1915D01*
X1040Y1915D02*
X1158Y1915D01*
X42Y1914D02*
X162Y1914D01*
X1039Y1914D02*
X1159Y1914D01*
X42Y1913D02*
X162Y1913D01*
X1039Y1913D02*
X1159Y1913D01*
X41Y1912D02*
X162Y1912D01*
X1039Y1912D02*
X1159Y1912D01*
X41Y1911D02*
X162Y1911D01*
X1038Y1911D02*
X1160Y1911D01*
X41Y1910D02*
X163Y1910D01*
X1038Y1910D02*
X1160Y1910D01*
X41Y1909D02*
X99Y1909D01*
X106Y1909D02*
X163Y1909D01*
X1038Y1909D02*
X1096Y1909D01*
X1102Y1909D02*
X1160Y1909D01*
X41Y1908D02*
X98Y1908D01*
X107Y1908D02*
X163Y1908D01*
X1038Y1908D02*
X1094Y1908D01*
X1104Y1908D02*
X1160Y1908D01*
X41Y1907D02*
X97Y1907D01*
X108Y1907D02*
X163Y1907D01*
X1038Y1907D02*
X1093Y1907D01*
X1105Y1907D02*
X1160Y1907D01*
X40Y1906D02*
X96Y1906D01*
X109Y1906D02*
X163Y1906D01*
X1038Y1906D02*
X1093Y1906D01*
X1105Y1906D02*
X1160Y1906D01*
X40Y1905D02*
X96Y1905D01*
X109Y1905D02*
X163Y1905D01*
X1037Y1905D02*
X1092Y1905D01*
X1106Y1905D02*
X1160Y1905D01*
X40Y1904D02*
X96Y1904D01*
X109Y1904D02*
X163Y1904D01*
X1037Y1904D02*
X1092Y1904D01*
X1106Y1904D02*
X1160Y1904D01*
X40Y1903D02*
X96Y1903D01*
X109Y1903D02*
X163Y1903D01*
X1038Y1903D02*
X1092Y1903D01*
X1106Y1903D02*
X1160Y1903D01*
X40Y1902D02*
X96Y1902D01*
X109Y1902D02*
X163Y1902D01*
X1038Y1902D02*
X1092Y1902D01*
X1106Y1902D02*
X1160Y1902D01*
X40Y1901D02*
X96Y1901D01*
X109Y1901D02*
X163Y1901D01*
X1038Y1901D02*
X1093Y1901D01*
X1105Y1901D02*
X1160Y1901D01*
X41Y1900D02*
X97Y1900D01*
X108Y1900D02*
X163Y1900D01*
X1038Y1900D02*
X1093Y1900D01*
X1105Y1900D02*
X1160Y1900D01*
X41Y1899D02*
X98Y1899D01*
X107Y1899D02*
X163Y1899D01*
X1038Y1899D02*
X1094Y1899D01*
X1104Y1899D02*
X1160Y1899D01*
X41Y1898D02*
X100Y1898D01*
X105Y1898D02*
X163Y1898D01*
X1038Y1898D02*
X1096Y1898D01*
X1102Y1898D02*
X1160Y1898D01*
X41Y1897D02*
X163Y1897D01*
X1038Y1897D02*
X1160Y1897D01*
X41Y1896D02*
X162Y1896D01*
X1038Y1896D02*
X1159Y1896D01*
X42Y1895D02*
X162Y1895D01*
X1039Y1895D02*
X1159Y1895D01*
X42Y1894D02*
X162Y1894D01*
X1039Y1894D02*
X1159Y1894D01*
X42Y1893D02*
X161Y1893D01*
X1039Y1893D02*
X1159Y1893D01*
X42Y1892D02*
X161Y1892D01*
X1040Y1892D02*
X1158Y1892D01*
X43Y1891D02*
X161Y1891D01*
X1040Y1891D02*
X1158Y1891D01*
X43Y1890D02*
X160Y1890D01*
X1040Y1890D02*
X1158Y1890D01*
X44Y1889D02*
X160Y1889D01*
X1041Y1889D02*
X1157Y1889D01*
X44Y1888D02*
X159Y1888D01*
X1041Y1888D02*
X1157Y1888D01*
X45Y1887D02*
X159Y1887D01*
X1042Y1887D02*
X1156Y1887D01*
X45Y1886D02*
X158Y1886D01*
X1042Y1886D02*
X1156Y1886D01*
X46Y1885D02*
X158Y1885D01*
X1043Y1885D02*
X1155Y1885D01*
X46Y1884D02*
X157Y1884D01*
X1043Y1884D02*
X1154Y1884D01*
X47Y1883D02*
X157Y1883D01*
X1044Y1883D02*
X1154Y1883D01*
X48Y1882D02*
X156Y1882D01*
X1045Y1882D02*
X1153Y1882D01*
X48Y1881D02*
X155Y1881D01*
X1046Y1881D02*
X1152Y1881D01*
X49Y1880D02*
X154Y1880D01*
X1046Y1880D02*
X1152Y1880D01*
X50Y1879D02*
X153Y1879D01*
X1047Y1879D02*
X1151Y1879D01*
X51Y1878D02*
X153Y1878D01*
X1048Y1878D02*
X1150Y1878D01*
X52Y1877D02*
X151Y1877D01*
X1049Y1877D02*
X1149Y1877D01*
X53Y1876D02*
X150Y1876D01*
X1050Y1876D02*
X1147Y1876D01*
X55Y1875D02*
X149Y1875D01*
X1052Y1875D02*
X1146Y1875D01*
X56Y1874D02*
X148Y1874D01*
X1053Y1874D02*
X1145Y1874D01*
X58Y1873D02*
X146Y1873D01*
X1055Y1873D02*
X1143Y1873D01*
X59Y1872D02*
X144Y1872D01*
X1057Y1872D02*
X1141Y1872D01*
X62Y1871D02*
X142Y1871D01*
X1059Y1871D02*
X1139Y1871D01*
X64Y1870D02*
X140Y1870D01*
X1061Y1870D02*
X1137Y1870D01*
X67Y1869D02*
X137Y1869D01*
X1064Y1869D02*
X1134Y1869D01*
X72Y1868D02*
X132Y1868D01*
X1069Y1868D02*
X1129Y1868D01*
X71Y1839D02*
X133Y1839D01*
X1068Y1839D02*
X1130Y1839D01*
X66Y1838D02*
X137Y1838D01*
X1064Y1838D02*
X1134Y1838D01*
X64Y1837D02*
X140Y1837D01*
X1061Y1837D02*
X1137Y1837D01*
X61Y1836D02*
X142Y1836D01*
X1058Y1836D02*
X1140Y1836D01*
X59Y1835D02*
X145Y1835D01*
X1056Y1835D02*
X1142Y1835D01*
X57Y1834D02*
X146Y1834D01*
X1055Y1834D02*
X1143Y1834D01*
X56Y1833D02*
X148Y1833D01*
X1053Y1833D02*
X1145Y1833D01*
X54Y1832D02*
X149Y1832D01*
X1052Y1832D02*
X1146Y1832D01*
X53Y1831D02*
X151Y1831D01*
X1050Y1831D02*
X1148Y1831D01*
X52Y1830D02*
X152Y1830D01*
X1049Y1830D02*
X1149Y1830D01*
X51Y1829D02*
X153Y1829D01*
X1048Y1829D02*
X1150Y1829D01*
X50Y1828D02*
X154Y1828D01*
X1047Y1828D02*
X1151Y1828D01*
X49Y1827D02*
X155Y1827D01*
X1046Y1827D02*
X1152Y1827D01*
X48Y1826D02*
X155Y1826D01*
X1045Y1826D02*
X1153Y1826D01*
X48Y1825D02*
X156Y1825D01*
X1045Y1825D02*
X1153Y1825D01*
X47Y1824D02*
X157Y1824D01*
X1044Y1824D02*
X1154Y1824D01*
X46Y1823D02*
X157Y1823D01*
X1043Y1823D02*
X1155Y1823D01*
X46Y1822D02*
X158Y1822D01*
X1043Y1822D02*
X1155Y1822D01*
X45Y1821D02*
X159Y1821D01*
X1042Y1821D02*
X1156Y1821D01*
X45Y1820D02*
X159Y1820D01*
X1042Y1820D02*
X1156Y1820D01*
X44Y1819D02*
X160Y1819D01*
X1041Y1819D02*
X1157Y1819D01*
X44Y1818D02*
X160Y1818D01*
X1041Y1818D02*
X1157Y1818D01*
X43Y1817D02*
X160Y1817D01*
X1040Y1817D02*
X1158Y1817D01*
X43Y1816D02*
X161Y1816D01*
X1040Y1816D02*
X1158Y1816D01*
X42Y1815D02*
X161Y1815D01*
X1040Y1815D02*
X1158Y1815D01*
X42Y1814D02*
X162Y1814D01*
X1039Y1814D02*
X1159Y1814D01*
X42Y1813D02*
X162Y1813D01*
X1039Y1813D02*
X1159Y1813D01*
X42Y1812D02*
X162Y1812D01*
X1039Y1812D02*
X1159Y1812D01*
X41Y1811D02*
X162Y1811D01*
X1038Y1811D02*
X1160Y1811D01*
X41Y1810D02*
X163Y1810D01*
X1038Y1810D02*
X1160Y1810D01*
X41Y1809D02*
X99Y1809D01*
X106Y1809D02*
X163Y1809D01*
X1038Y1809D02*
X1096Y1809D01*
X1102Y1809D02*
X1160Y1809D01*
X41Y1808D02*
X98Y1808D01*
X107Y1808D02*
X163Y1808D01*
X1038Y1808D02*
X1094Y1808D01*
X1104Y1808D02*
X1160Y1808D01*
X41Y1807D02*
X97Y1807D01*
X108Y1807D02*
X163Y1807D01*
X1038Y1807D02*
X1093Y1807D01*
X1105Y1807D02*
X1160Y1807D01*
X41Y1806D02*
X96Y1806D01*
X109Y1806D02*
X163Y1806D01*
X1038Y1806D02*
X1093Y1806D01*
X1105Y1806D02*
X1160Y1806D01*
X40Y1805D02*
X96Y1805D01*
X109Y1805D02*
X163Y1805D01*
X1037Y1805D02*
X1092Y1805D01*
X1106Y1805D02*
X1160Y1805D01*
X40Y1804D02*
X96Y1804D01*
X109Y1804D02*
X163Y1804D01*
X1037Y1804D02*
X1092Y1804D01*
X1106Y1804D02*
X1160Y1804D01*
X40Y1803D02*
X96Y1803D01*
X109Y1803D02*
X163Y1803D01*
X1038Y1803D02*
X1092Y1803D01*
X1106Y1803D02*
X1160Y1803D01*
X40Y1802D02*
X96Y1802D01*
X109Y1802D02*
X163Y1802D01*
X1038Y1802D02*
X1092Y1802D01*
X1105Y1802D02*
X1160Y1802D01*
X41Y1801D02*
X97Y1801D01*
X109Y1801D02*
X163Y1801D01*
X1038Y1801D02*
X1093Y1801D01*
X1105Y1801D02*
X1160Y1801D01*
X41Y1800D02*
X97Y1800D01*
X108Y1800D02*
X163Y1800D01*
X1038Y1800D02*
X1094Y1800D01*
X1104Y1800D02*
X1160Y1800D01*
X41Y1799D02*
X98Y1799D01*
X107Y1799D02*
X163Y1799D01*
X1038Y1799D02*
X1094Y1799D01*
X1103Y1799D02*
X1160Y1799D01*
X41Y1798D02*
X100Y1798D01*
X105Y1798D02*
X163Y1798D01*
X1038Y1798D02*
X1096Y1798D01*
X1102Y1798D02*
X1160Y1798D01*
X41Y1797D02*
X163Y1797D01*
X1038Y1797D02*
X1160Y1797D01*
X41Y1796D02*
X162Y1796D01*
X1038Y1796D02*
X1159Y1796D01*
X42Y1795D02*
X162Y1795D01*
X1039Y1795D02*
X1159Y1795D01*
X42Y1794D02*
X162Y1794D01*
X1039Y1794D02*
X1159Y1794D01*
X42Y1793D02*
X161Y1793D01*
X1039Y1793D02*
X1159Y1793D01*
X43Y1792D02*
X161Y1792D01*
X1040Y1792D02*
X1158Y1792D01*
X43Y1791D02*
X161Y1791D01*
X1040Y1791D02*
X1158Y1791D01*
X43Y1790D02*
X160Y1790D01*
X1040Y1790D02*
X1158Y1790D01*
X44Y1789D02*
X160Y1789D01*
X1041Y1789D02*
X1157Y1789D01*
X44Y1788D02*
X159Y1788D01*
X1041Y1788D02*
X1157Y1788D01*
X45Y1787D02*
X159Y1787D01*
X1042Y1787D02*
X1156Y1787D01*
X45Y1786D02*
X158Y1786D01*
X1042Y1786D02*
X1156Y1786D01*
X46Y1785D02*
X158Y1785D01*
X1043Y1785D02*
X1155Y1785D01*
X46Y1784D02*
X157Y1784D01*
X1044Y1784D02*
X1154Y1784D01*
X47Y1783D02*
X157Y1783D01*
X1044Y1783D02*
X1154Y1783D01*
X48Y1782D02*
X156Y1782D01*
X1045Y1782D02*
X1153Y1782D01*
X48Y1781D02*
X155Y1781D01*
X1046Y1781D02*
X1152Y1781D01*
X49Y1780D02*
X154Y1780D01*
X1046Y1780D02*
X1152Y1780D01*
X50Y1779D02*
X153Y1779D01*
X1047Y1779D02*
X1151Y1779D01*
X51Y1778D02*
X153Y1778D01*
X1048Y1778D02*
X1150Y1778D01*
X52Y1777D02*
X151Y1777D01*
X1049Y1777D02*
X1149Y1777D01*
X53Y1776D02*
X150Y1776D01*
X1051Y1776D02*
X1147Y1776D01*
X55Y1775D02*
X149Y1775D01*
X1052Y1775D02*
X1146Y1775D01*
X56Y1774D02*
X148Y1774D01*
X1053Y1774D02*
X1145Y1774D01*
X58Y1773D02*
X146Y1773D01*
X1055Y1773D02*
X1143Y1773D01*
X60Y1772D02*
X144Y1772D01*
X1057Y1772D02*
X1141Y1772D01*
X62Y1771D02*
X142Y1771D01*
X1059Y1771D02*
X1139Y1771D01*
X64Y1770D02*
X140Y1770D01*
X1061Y1770D02*
X1137Y1770D01*
X67Y1769D02*
X136Y1769D01*
X1064Y1769D02*
X1134Y1769D01*
X72Y1768D02*
X132Y1768D01*
X1069Y1768D02*
X1129Y1768D01*
X70Y1739D02*
X133Y1739D01*
X1068Y1739D02*
X1130Y1739D01*
X66Y1738D02*
X137Y1738D01*
X1063Y1738D02*
X1135Y1738D01*
X63Y1737D02*
X140Y1737D01*
X1061Y1737D02*
X1137Y1737D01*
X61Y1736D02*
X142Y1736D01*
X1058Y1736D02*
X1140Y1736D01*
X59Y1735D02*
X145Y1735D01*
X1056Y1735D02*
X1142Y1735D01*
X57Y1734D02*
X146Y1734D01*
X1055Y1734D02*
X1143Y1734D01*
X56Y1733D02*
X148Y1733D01*
X1053Y1733D02*
X1145Y1733D01*
X54Y1732D02*
X149Y1732D01*
X1052Y1732D02*
X1146Y1732D01*
X53Y1731D02*
X151Y1731D01*
X1050Y1731D02*
X1148Y1731D01*
X52Y1730D02*
X152Y1730D01*
X1049Y1730D02*
X1149Y1730D01*
X51Y1729D02*
X153Y1729D01*
X1048Y1729D02*
X1150Y1729D01*
X50Y1728D02*
X154Y1728D01*
X1047Y1728D02*
X1151Y1728D01*
X49Y1727D02*
X155Y1727D01*
X1046Y1727D02*
X1152Y1727D01*
X48Y1726D02*
X155Y1726D01*
X1045Y1726D02*
X1153Y1726D01*
X47Y1725D02*
X156Y1725D01*
X1045Y1725D02*
X1153Y1725D01*
X47Y1724D02*
X157Y1724D01*
X1044Y1724D02*
X1154Y1724D01*
X46Y1723D02*
X157Y1723D01*
X1043Y1723D02*
X1155Y1723D01*
X46Y1722D02*
X158Y1722D01*
X1043Y1722D02*
X1155Y1722D01*
X45Y1721D02*
X159Y1721D01*
X1042Y1721D02*
X1156Y1721D01*
X44Y1720D02*
X159Y1720D01*
X1042Y1720D02*
X1156Y1720D01*
X44Y1719D02*
X160Y1719D01*
X1041Y1719D02*
X1157Y1719D01*
X44Y1718D02*
X160Y1718D01*
X1041Y1718D02*
X1157Y1718D01*
X43Y1717D02*
X160Y1717D01*
X1040Y1717D02*
X1158Y1717D01*
X43Y1716D02*
X161Y1716D01*
X1040Y1716D02*
X1158Y1716D01*
X42Y1715D02*
X161Y1715D01*
X1040Y1715D02*
X1158Y1715D01*
X42Y1714D02*
X162Y1714D01*
X1039Y1714D02*
X1159Y1714D01*
X42Y1713D02*
X162Y1713D01*
X1039Y1713D02*
X1159Y1713D01*
X41Y1712D02*
X162Y1712D01*
X1039Y1712D02*
X1159Y1712D01*
X41Y1711D02*
X162Y1711D01*
X1038Y1711D02*
X1160Y1711D01*
X41Y1710D02*
X163Y1710D01*
X1038Y1710D02*
X1160Y1710D01*
X41Y1709D02*
X99Y1709D01*
X106Y1709D02*
X163Y1709D01*
X1038Y1709D02*
X1096Y1709D01*
X1102Y1709D02*
X1160Y1709D01*
X41Y1708D02*
X98Y1708D01*
X107Y1708D02*
X163Y1708D01*
X1038Y1708D02*
X1094Y1708D01*
X1104Y1708D02*
X1160Y1708D01*
X41Y1707D02*
X97Y1707D01*
X108Y1707D02*
X163Y1707D01*
X1038Y1707D02*
X1093Y1707D01*
X1105Y1707D02*
X1160Y1707D01*
X40Y1706D02*
X96Y1706D01*
X109Y1706D02*
X163Y1706D01*
X1038Y1706D02*
X1093Y1706D01*
X1105Y1706D02*
X1160Y1706D01*
X40Y1705D02*
X96Y1705D01*
X109Y1705D02*
X163Y1705D01*
X1037Y1705D02*
X1092Y1705D01*
X1106Y1705D02*
X1160Y1705D01*
X40Y1704D02*
X96Y1704D01*
X109Y1704D02*
X163Y1704D01*
X1037Y1704D02*
X1092Y1704D01*
X1106Y1704D02*
X1160Y1704D01*
X40Y1703D02*
X96Y1703D01*
X109Y1703D02*
X163Y1703D01*
X1038Y1703D02*
X1092Y1703D01*
X1106Y1703D02*
X1160Y1703D01*
X40Y1702D02*
X96Y1702D01*
X109Y1702D02*
X163Y1702D01*
X1038Y1702D02*
X1092Y1702D01*
X1105Y1702D02*
X1160Y1702D01*
X40Y1701D02*
X97Y1701D01*
X109Y1701D02*
X163Y1701D01*
X1038Y1701D02*
X1093Y1701D01*
X1105Y1701D02*
X1160Y1701D01*
X41Y1700D02*
X97Y1700D01*
X108Y1700D02*
X163Y1700D01*
X1038Y1700D02*
X1094Y1700D01*
X1104Y1700D02*
X1160Y1700D01*
X41Y1699D02*
X98Y1699D01*
X107Y1699D02*
X163Y1699D01*
X1038Y1699D02*
X1095Y1699D01*
X1103Y1699D02*
X1160Y1699D01*
X41Y1698D02*
X100Y1698D01*
X105Y1698D02*
X163Y1698D01*
X1038Y1698D02*
X1096Y1698D01*
X1102Y1698D02*
X1160Y1698D01*
X41Y1697D02*
X163Y1697D01*
X1038Y1697D02*
X1160Y1697D01*
X41Y1696D02*
X162Y1696D01*
X1038Y1696D02*
X1159Y1696D01*
X42Y1695D02*
X162Y1695D01*
X1039Y1695D02*
X1159Y1695D01*
X42Y1694D02*
X162Y1694D01*
X1039Y1694D02*
X1159Y1694D01*
X42Y1693D02*
X161Y1693D01*
X1039Y1693D02*
X1159Y1693D01*
X42Y1692D02*
X161Y1692D01*
X1040Y1692D02*
X1158Y1692D01*
X43Y1691D02*
X161Y1691D01*
X1040Y1691D02*
X1158Y1691D01*
X43Y1690D02*
X160Y1690D01*
X1040Y1690D02*
X1158Y1690D01*
X44Y1689D02*
X160Y1689D01*
X1041Y1689D02*
X1157Y1689D01*
X44Y1688D02*
X159Y1688D01*
X1041Y1688D02*
X1157Y1688D01*
X45Y1687D02*
X159Y1687D01*
X1042Y1687D02*
X1156Y1687D01*
X45Y1686D02*
X158Y1686D01*
X1042Y1686D02*
X1156Y1686D01*
X46Y1685D02*
X158Y1685D01*
X1043Y1685D02*
X1155Y1685D01*
X46Y1684D02*
X157Y1684D01*
X1044Y1684D02*
X1154Y1684D01*
X47Y1683D02*
X157Y1683D01*
X1044Y1683D02*
X1154Y1683D01*
X48Y1682D02*
X156Y1682D01*
X1045Y1682D02*
X1153Y1682D01*
X48Y1681D02*
X155Y1681D01*
X1046Y1681D02*
X1152Y1681D01*
X49Y1680D02*
X154Y1680D01*
X1046Y1680D02*
X1152Y1680D01*
X50Y1679D02*
X153Y1679D01*
X1047Y1679D02*
X1151Y1679D01*
X51Y1678D02*
X153Y1678D01*
X1048Y1678D02*
X1150Y1678D01*
X52Y1677D02*
X151Y1677D01*
X1049Y1677D02*
X1149Y1677D01*
X53Y1676D02*
X150Y1676D01*
X1051Y1676D02*
X1147Y1676D01*
X55Y1675D02*
X149Y1675D01*
X1052Y1675D02*
X1146Y1675D01*
X56Y1674D02*
X147Y1674D01*
X1053Y1674D02*
X1145Y1674D01*
X58Y1673D02*
X146Y1673D01*
X1055Y1673D02*
X1143Y1673D01*
X60Y1672D02*
X144Y1672D01*
X1057Y1672D02*
X1141Y1672D01*
X62Y1671D02*
X142Y1671D01*
X1059Y1671D02*
X1139Y1671D01*
X64Y1670D02*
X139Y1670D01*
X1061Y1670D02*
X1137Y1670D01*
X67Y1669D02*
X136Y1669D01*
X1064Y1669D02*
X1134Y1669D01*
X72Y1668D02*
X132Y1668D01*
X1069Y1668D02*
X1129Y1668D01*
X70Y1639D02*
X133Y1639D01*
X1067Y1639D02*
X1131Y1639D01*
X66Y1638D02*
X137Y1638D01*
X1063Y1638D02*
X1135Y1638D01*
X63Y1637D02*
X140Y1637D01*
X1061Y1637D02*
X1137Y1637D01*
X61Y1636D02*
X143Y1636D01*
X1058Y1636D02*
X1140Y1636D01*
X59Y1635D02*
X145Y1635D01*
X1056Y1635D02*
X1142Y1635D01*
X57Y1634D02*
X146Y1634D01*
X1054Y1634D02*
X1143Y1634D01*
X56Y1633D02*
X148Y1633D01*
X1053Y1633D02*
X1145Y1633D01*
X54Y1632D02*
X149Y1632D01*
X1051Y1632D02*
X1146Y1632D01*
X53Y1631D02*
X151Y1631D01*
X1050Y1631D02*
X1148Y1631D01*
X52Y1630D02*
X152Y1630D01*
X1049Y1630D02*
X1149Y1630D01*
X51Y1629D02*
X153Y1629D01*
X1048Y1629D02*
X1150Y1629D01*
X50Y1628D02*
X154Y1628D01*
X1047Y1628D02*
X1151Y1628D01*
X49Y1627D02*
X155Y1627D01*
X1046Y1627D02*
X1152Y1627D01*
X48Y1626D02*
X155Y1626D01*
X1045Y1626D02*
X1153Y1626D01*
X48Y1625D02*
X156Y1625D01*
X1045Y1625D02*
X1153Y1625D01*
X47Y1624D02*
X157Y1624D01*
X1044Y1624D02*
X1154Y1624D01*
X46Y1623D02*
X157Y1623D01*
X1043Y1623D02*
X1155Y1623D01*
X46Y1622D02*
X158Y1622D01*
X1043Y1622D02*
X1155Y1622D01*
X45Y1621D02*
X159Y1621D01*
X1042Y1621D02*
X1156Y1621D01*
X45Y1620D02*
X159Y1620D01*
X1042Y1620D02*
X1156Y1620D01*
X44Y1619D02*
X160Y1619D01*
X1041Y1619D02*
X1157Y1619D01*
X44Y1618D02*
X160Y1618D01*
X1041Y1618D02*
X1157Y1618D01*
X43Y1617D02*
X160Y1617D01*
X1040Y1617D02*
X1158Y1617D01*
X43Y1616D02*
X161Y1616D01*
X1040Y1616D02*
X1158Y1616D01*
X42Y1615D02*
X161Y1615D01*
X1040Y1615D02*
X1158Y1615D01*
X42Y1614D02*
X162Y1614D01*
X1039Y1614D02*
X1159Y1614D01*
X42Y1613D02*
X162Y1613D01*
X1039Y1613D02*
X1159Y1613D01*
X42Y1612D02*
X162Y1612D01*
X1039Y1612D02*
X1159Y1612D01*
X41Y1611D02*
X162Y1611D01*
X1038Y1611D02*
X1160Y1611D01*
X41Y1610D02*
X163Y1610D01*
X1038Y1610D02*
X1160Y1610D01*
X41Y1609D02*
X99Y1609D01*
X106Y1609D02*
X163Y1609D01*
X1038Y1609D02*
X1095Y1609D01*
X1102Y1609D02*
X1160Y1609D01*
X41Y1608D02*
X98Y1608D01*
X107Y1608D02*
X163Y1608D01*
X1038Y1608D02*
X1094Y1608D01*
X1104Y1608D02*
X1160Y1608D01*
X41Y1607D02*
X97Y1607D01*
X108Y1607D02*
X163Y1607D01*
X1038Y1607D02*
X1093Y1607D01*
X1105Y1607D02*
X1160Y1607D01*
X41Y1606D02*
X96Y1606D01*
X109Y1606D02*
X163Y1606D01*
X1038Y1606D02*
X1093Y1606D01*
X1105Y1606D02*
X1160Y1606D01*
X40Y1605D02*
X96Y1605D01*
X109Y1605D02*
X163Y1605D01*
X1037Y1605D02*
X1092Y1605D01*
X1106Y1605D02*
X1160Y1605D01*
X40Y1604D02*
X96Y1604D01*
X109Y1604D02*
X163Y1604D01*
X1037Y1604D02*
X1092Y1604D01*
X1106Y1604D02*
X1160Y1604D01*
X40Y1603D02*
X96Y1603D01*
X109Y1603D02*
X163Y1603D01*
X1038Y1603D02*
X1092Y1603D01*
X1106Y1603D02*
X1160Y1603D01*
X40Y1602D02*
X96Y1602D01*
X109Y1602D02*
X163Y1602D01*
X1038Y1602D02*
X1092Y1602D01*
X1105Y1602D02*
X1160Y1602D01*
X41Y1601D02*
X97Y1601D01*
X109Y1601D02*
X163Y1601D01*
X1038Y1601D02*
X1093Y1601D01*
X1105Y1601D02*
X1160Y1601D01*
X41Y1600D02*
X97Y1600D01*
X108Y1600D02*
X163Y1600D01*
X1038Y1600D02*
X1094Y1600D01*
X1104Y1600D02*
X1160Y1600D01*
X41Y1599D02*
X98Y1599D01*
X107Y1599D02*
X163Y1599D01*
X1038Y1599D02*
X1095Y1599D01*
X1103Y1599D02*
X1160Y1599D01*
X41Y1598D02*
X100Y1598D01*
X105Y1598D02*
X163Y1598D01*
X1038Y1598D02*
X1096Y1598D01*
X1101Y1598D02*
X1160Y1598D01*
X41Y1597D02*
X163Y1597D01*
X1038Y1597D02*
X1160Y1597D01*
X41Y1596D02*
X162Y1596D01*
X1038Y1596D02*
X1159Y1596D01*
X42Y1595D02*
X162Y1595D01*
X1039Y1595D02*
X1159Y1595D01*
X42Y1594D02*
X162Y1594D01*
X1039Y1594D02*
X1159Y1594D01*
X42Y1593D02*
X161Y1593D01*
X1039Y1593D02*
X1159Y1593D01*
X43Y1592D02*
X161Y1592D01*
X1040Y1592D02*
X1158Y1592D01*
X43Y1591D02*
X161Y1591D01*
X1040Y1591D02*
X1158Y1591D01*
X43Y1590D02*
X160Y1590D01*
X1040Y1590D02*
X1158Y1590D01*
X44Y1589D02*
X160Y1589D01*
X1041Y1589D02*
X1157Y1589D01*
X44Y1588D02*
X159Y1588D01*
X1041Y1588D02*
X1157Y1588D01*
X45Y1587D02*
X159Y1587D01*
X1042Y1587D02*
X1156Y1587D01*
X45Y1586D02*
X158Y1586D01*
X1042Y1586D02*
X1156Y1586D01*
X46Y1585D02*
X158Y1585D01*
X1043Y1585D02*
X1155Y1585D01*
X46Y1584D02*
X157Y1584D01*
X1044Y1584D02*
X1154Y1584D01*
X47Y1583D02*
X157Y1583D01*
X1044Y1583D02*
X1154Y1583D01*
X48Y1582D02*
X156Y1582D01*
X1045Y1582D02*
X1153Y1582D01*
X48Y1581D02*
X155Y1581D01*
X1046Y1581D02*
X1152Y1581D01*
X49Y1580D02*
X154Y1580D01*
X1046Y1580D02*
X1151Y1580D01*
X50Y1579D02*
X153Y1579D01*
X1047Y1579D02*
X1151Y1579D01*
X51Y1578D02*
X152Y1578D01*
X1048Y1578D02*
X1150Y1578D01*
X52Y1577D02*
X151Y1577D01*
X1049Y1577D02*
X1149Y1577D01*
X53Y1576D02*
X150Y1576D01*
X1051Y1576D02*
X1147Y1576D01*
X55Y1575D02*
X149Y1575D01*
X1052Y1575D02*
X1146Y1575D01*
X56Y1574D02*
X147Y1574D01*
X1053Y1574D02*
X1145Y1574D01*
X58Y1573D02*
X146Y1573D01*
X1055Y1573D02*
X1143Y1573D01*
X60Y1572D02*
X144Y1572D01*
X1057Y1572D02*
X1141Y1572D01*
X62Y1571D02*
X142Y1571D01*
X1059Y1571D02*
X1139Y1571D01*
X64Y1570D02*
X139Y1570D01*
X1061Y1570D02*
X1137Y1570D01*
X67Y1569D02*
X136Y1569D01*
X1065Y1569D02*
X1133Y1569D01*
X72Y1568D02*
X131Y1568D01*
X1069Y1568D02*
X1129Y1568D01*
D02*
G04 End of Mask0*
M02*