; NON-PLATED HOLES START AT T1
; THROUGH (PLATED) HOLES START AT T100
M48
INCH
T100C0.038000
T101C0.042000
T102C0.040000
T103C0.100000
T104C0.030556
T105C0.035000
%
T100
X012013Y027025
X013008Y025032
X001013Y021025
X002008Y030032
X001008Y002032
X003008Y032032
X010758Y005032
X003008Y021032
X013008Y030032
X011013Y029025
X013008Y027032
X011013Y019025
X013008Y026032
X003008Y019032
X012013Y022025
X001013Y030025
X001008Y006032
X003008Y016032
X012013Y026025
X018008Y001032
X001013Y023025
X008508Y002032
X011013Y025025
X011013Y024025
X013008Y019032
X018008Y005032
X012013Y029025
X002008Y021032
X003008Y020032
X007508Y013032
X002008Y017032
X001013Y016025
X001013Y020025
X011013Y022025
X001013Y022025
X003008Y029032
X002008Y028032
X003008Y026032
X013008Y018032
X012013Y023025
X008508Y007032
X002008Y025032
X002008Y020032
X010758Y001032
X001013Y024025
X011013Y030025
X013008Y024032
X008508Y003032
X001013Y029025
X012013Y030025
X003008Y024032
X001008Y011032
X012013Y018025
X001008Y004032
X008508Y008032
X012013Y019025
X011013Y020025
X011013Y018025
X013008Y020032
X001013Y027025
X012013Y024025
X017008Y005032
X003008Y022032
X002008Y027032
X011013Y026025
X013008Y023032
X001013Y028025
X001008Y012032
X013008Y022032
X017008Y003032
X012013Y016025
X005508Y029032
X012013Y021025
X013008Y016032
X003008Y025032
X018008Y006032
X004508Y013032
X003008Y028032
X010758Y006032
X001013Y026025
X002008Y029032
X011013Y028025
X002008Y023032
X013008Y021032
X001013Y025025
X012013Y017025
X001008Y003032
X011013Y021025
X011013Y016025
X010758Y002032
X001008Y013032
X002008Y026032
X011013Y023025
X001008Y010032
X002008Y022032
X012013Y028025
X008508Y004032
X017008Y004032
X011013Y017025
X013008Y028032
X011013Y027025
X003008Y018032
X006508Y029032
X005508Y013032
X012013Y025025
X018008Y002032
X008508Y009032
X001013Y018025
X003008Y031032
X017008Y002032
X003008Y023032
X001008Y007032
X002008Y016032
X007508Y029032
X002008Y024032
X003008Y030032
X003008Y027032
X001013Y017025
X012013Y020025
X006508Y013032
X001013Y019025
X013008Y017032
X002008Y018032
X013008Y029032
X002008Y019032
X003008Y017032
X001008Y008032
T101
X020008Y026032
X017008Y019032
X016008Y015032
X018008Y015032
X006508Y010032
X018008Y023032
X020008Y014032
X017008Y023032
X016008Y008282
X016008Y019032
X020008Y018032
X020008Y021012
X020008Y010032
X020008Y033012
X020008Y025012
X017008Y008282
X016008Y011032
X003528Y010032
X018008Y019032
X017008Y027032
X020008Y013012
X020008Y030032
X017008Y011032
X018008Y027032
X016008Y023032
X017008Y031032
X017008Y015032
X020008Y029012
X020008Y022032
X016008Y031032
X016008Y027032
X018008Y031032
X018008Y011032
X020008Y017012
X018008Y008282
T102
X022508Y009032
X022508Y013032
X022508Y027032
X022508Y029032
X022508Y007032
X022508Y025032
X022508Y021032
X022508Y031032
X022508Y033032
X022508Y015032
X022508Y017032
X022508Y023032
X022508Y019032
X022508Y011032
T103
X021308Y004932
X022508Y003032
X020108Y003032
T104
X010508Y014032
X010508Y012032
X010507Y013031
T105
X016508Y013032
X006508Y005032
X018508Y017032
X003508Y005032
X009008Y012032
X006508Y020532
X016508Y025032
X003508Y003032
X009508Y016532
X015508Y017032
X003508Y002032
X006508Y016532
X006508Y007032
X006508Y008032
X009508Y020532
X017508Y013032
X015508Y033032
X003508Y008032
X003508Y007032
X016508Y017032
X016508Y021032
X006508Y003032
X015508Y021032
X006508Y009032
X006508Y002032
X017508Y017032
X013008Y012032
X013008Y013032
X006508Y004032
X013008Y014032
X017508Y025032
X015508Y029032
X003508Y006032
X016508Y033032
X018508Y025032
X015508Y025032
X016508Y029032
X007508Y016532
X003508Y004032
X007508Y020532
X017508Y029032
X015508Y013032
X003508Y009032
X006508Y006032
X018508Y013032
X018508Y033032
X017508Y033032
X018508Y021032
X017508Y021032
X018508Y029032
X009008Y013032
T00
M30
