G04 MADE WITH FRITZING*
G04 WWW.FRITZING.ORG*
G04 DOUBLE SIDED*
G04 HOLES PLATED*
G04 CONTOUR ON CENTER OF CONTOUR VECTOR*
%ASAXBY*%
%FSLAX23Y23*%
%MOIN*%
%OFA0B0*%
%SFA1.0B1.0*%
%ADD10R,2.440940X3.503940X2.424940X3.487940*%
%ADD11C,0.008000*%
%ADD12R,0.001000X0.001000*%
%LNSILK0*%
G90*
G70*
G54D11*
X4Y3500D02*
X2437Y3500D01*
X2437Y4D01*
X4Y4D01*
X4Y3500D01*
D02*
G54D12*
X367Y2734D02*
X411Y2734D01*
X367Y2733D02*
X413Y2733D01*
X367Y2732D02*
X413Y2732D01*
X367Y2731D02*
X413Y2731D01*
X367Y2730D02*
X413Y2730D01*
X367Y2729D02*
X412Y2729D01*
X367Y2728D02*
X373Y2728D01*
X390Y2728D02*
X396Y2728D01*
X367Y2727D02*
X372Y2727D01*
X390Y2727D02*
X395Y2727D01*
X367Y2726D02*
X372Y2726D01*
X390Y2726D02*
X395Y2726D01*
X367Y2725D02*
X372Y2725D01*
X390Y2725D02*
X395Y2725D01*
X367Y2724D02*
X372Y2724D01*
X390Y2724D02*
X395Y2724D01*
X367Y2723D02*
X372Y2723D01*
X390Y2723D02*
X395Y2723D01*
X367Y2722D02*
X372Y2722D01*
X390Y2722D02*
X395Y2722D01*
X367Y2721D02*
X372Y2721D01*
X390Y2721D02*
X395Y2721D01*
X367Y2720D02*
X372Y2720D01*
X390Y2720D02*
X395Y2720D01*
X367Y2719D02*
X372Y2719D01*
X390Y2719D02*
X395Y2719D01*
X367Y2718D02*
X372Y2718D01*
X390Y2718D02*
X395Y2718D01*
X367Y2717D02*
X372Y2717D01*
X390Y2717D02*
X395Y2717D01*
X367Y2716D02*
X372Y2716D01*
X390Y2716D02*
X395Y2716D01*
X367Y2715D02*
X372Y2715D01*
X390Y2715D02*
X395Y2715D01*
X367Y2714D02*
X372Y2714D01*
X390Y2714D02*
X395Y2714D01*
X367Y2713D02*
X372Y2713D01*
X390Y2713D02*
X395Y2713D01*
X367Y2712D02*
X373Y2712D01*
X390Y2712D02*
X395Y2712D01*
X367Y2711D02*
X373Y2711D01*
X389Y2711D02*
X395Y2711D01*
X368Y2710D02*
X395Y2710D01*
X368Y2709D02*
X394Y2709D01*
X369Y2708D02*
X394Y2708D01*
X370Y2707D02*
X393Y2707D01*
X371Y2706D02*
X392Y2706D01*
X372Y2705D02*
X390Y2705D01*
X377Y2704D02*
X386Y2704D01*
X369Y2690D02*
X407Y2690D01*
X368Y2689D02*
X408Y2689D01*
X367Y2688D02*
X410Y2688D01*
X367Y2687D02*
X412Y2687D01*
X368Y2686D02*
X413Y2686D01*
X368Y2685D02*
X413Y2685D01*
X406Y2684D02*
X413Y2684D01*
X408Y2683D02*
X413Y2683D01*
X408Y2682D02*
X413Y2682D01*
X408Y2681D02*
X413Y2681D01*
X408Y2680D02*
X413Y2680D01*
X406Y2679D02*
X413Y2679D01*
X384Y2678D02*
X413Y2678D01*
X383Y2677D02*
X413Y2677D01*
X383Y2676D02*
X412Y2676D01*
X383Y2675D02*
X412Y2675D01*
X383Y2674D02*
X413Y2674D01*
X384Y2673D02*
X413Y2673D01*
X406Y2672D02*
X413Y2672D01*
X408Y2671D02*
X413Y2671D01*
X408Y2670D02*
X413Y2670D01*
X408Y2669D02*
X413Y2669D01*
X408Y2668D02*
X413Y2668D01*
X406Y2667D02*
X413Y2667D01*
X369Y2666D02*
X413Y2666D01*
X368Y2665D02*
X413Y2665D01*
X367Y2664D02*
X412Y2664D01*
X367Y2663D02*
X411Y2663D01*
X368Y2662D02*
X409Y2662D01*
X368Y2661D02*
X407Y2661D01*
X367Y2646D02*
X412Y2646D01*
X367Y2645D02*
X413Y2645D01*
X367Y2644D02*
X413Y2644D01*
X367Y2643D02*
X413Y2643D01*
X367Y2642D02*
X413Y2642D01*
X367Y2641D02*
X412Y2641D01*
X367Y2640D02*
X375Y2640D01*
X367Y2639D02*
X377Y2639D01*
X369Y2638D02*
X378Y2638D01*
X370Y2637D02*
X380Y2637D01*
X371Y2636D02*
X381Y2636D01*
X373Y2635D02*
X382Y2635D01*
X374Y2634D02*
X386Y2634D01*
X376Y2633D02*
X387Y2633D01*
X377Y2632D02*
X388Y2632D01*
X377Y2631D02*
X388Y2631D01*
X376Y2630D02*
X387Y2630D01*
X374Y2629D02*
X386Y2629D01*
X373Y2628D02*
X382Y2628D01*
X371Y2627D02*
X381Y2627D01*
X370Y2626D02*
X379Y2626D01*
X368Y2625D02*
X378Y2625D01*
X367Y2624D02*
X377Y2624D01*
X367Y2623D02*
X375Y2623D01*
X367Y2622D02*
X412Y2622D01*
X367Y2621D02*
X413Y2621D01*
X367Y2620D02*
X413Y2620D01*
X367Y2619D02*
X413Y2619D01*
X367Y2618D02*
X413Y2618D01*
X367Y2617D02*
X412Y2617D01*
X370Y2559D02*
X413Y2559D01*
X368Y2558D02*
X413Y2558D01*
X367Y2557D02*
X413Y2557D01*
X367Y2556D02*
X413Y2556D01*
X367Y2555D02*
X413Y2555D01*
X368Y2554D02*
X413Y2554D01*
X370Y2553D02*
X413Y2553D01*
X408Y2552D02*
X413Y2552D01*
X408Y2551D02*
X413Y2551D01*
X408Y2550D02*
X413Y2550D01*
X408Y2549D02*
X413Y2549D01*
X408Y2548D02*
X413Y2548D01*
X408Y2547D02*
X413Y2547D01*
X408Y2546D02*
X413Y2546D01*
X408Y2545D02*
X413Y2545D01*
X408Y2544D02*
X413Y2544D01*
X408Y2543D02*
X413Y2543D01*
X408Y2542D02*
X413Y2542D01*
X408Y2541D02*
X413Y2541D01*
X408Y2540D02*
X413Y2540D01*
X408Y2539D02*
X413Y2539D01*
X408Y2538D02*
X413Y2538D01*
X408Y2537D02*
X413Y2537D01*
X408Y2536D02*
X413Y2536D01*
X408Y2535D02*
X413Y2535D01*
X408Y2534D02*
X413Y2534D01*
X408Y2533D02*
X413Y2533D01*
X408Y2532D02*
X413Y2532D01*
X408Y2531D02*
X413Y2531D01*
X409Y2530D02*
X413Y2530D01*
X411Y2529D02*
X411Y2529D01*
X382Y2512D02*
X383Y2512D01*
X410Y2512D02*
X412Y2512D01*
X381Y2511D02*
X384Y2511D01*
X409Y2511D02*
X413Y2511D01*
X380Y2510D02*
X385Y2510D01*
X408Y2510D02*
X413Y2510D01*
X380Y2509D02*
X385Y2509D01*
X408Y2509D02*
X413Y2509D01*
X380Y2508D02*
X385Y2508D01*
X408Y2508D02*
X413Y2508D01*
X380Y2507D02*
X385Y2507D01*
X408Y2507D02*
X413Y2507D01*
X366Y2506D02*
X370Y2506D01*
X380Y2506D02*
X385Y2506D01*
X408Y2506D02*
X413Y2506D01*
X365Y2505D02*
X372Y2505D01*
X380Y2505D02*
X385Y2505D01*
X408Y2505D02*
X413Y2505D01*
X365Y2504D02*
X372Y2504D01*
X380Y2504D02*
X385Y2504D01*
X408Y2504D02*
X413Y2504D01*
X365Y2503D02*
X372Y2503D01*
X380Y2503D02*
X413Y2503D01*
X365Y2502D02*
X372Y2502D01*
X380Y2502D02*
X413Y2502D01*
X365Y2501D02*
X372Y2501D01*
X380Y2501D02*
X413Y2501D01*
X365Y2500D02*
X372Y2500D01*
X380Y2500D02*
X413Y2500D01*
X365Y2499D02*
X372Y2499D01*
X380Y2499D02*
X413Y2499D01*
X366Y2498D02*
X371Y2498D01*
X381Y2498D02*
X413Y2498D01*
X408Y2497D02*
X413Y2497D01*
X408Y2496D02*
X413Y2496D01*
X408Y2495D02*
X413Y2495D01*
X408Y2494D02*
X413Y2494D01*
X408Y2493D02*
X413Y2493D01*
X408Y2492D02*
X413Y2492D01*
X408Y2491D02*
X413Y2491D01*
X409Y2490D02*
X413Y2490D01*
X409Y2489D02*
X412Y2489D01*
X388Y2471D02*
X403Y2471D01*
X386Y2470D02*
X405Y2470D01*
X385Y2469D02*
X406Y2469D01*
X384Y2468D02*
X407Y2468D01*
X423Y2468D02*
X425Y2468D01*
X383Y2467D02*
X408Y2467D01*
X422Y2467D02*
X426Y2467D01*
X382Y2466D02*
X409Y2466D01*
X421Y2466D02*
X426Y2466D01*
X381Y2465D02*
X389Y2465D01*
X402Y2465D02*
X409Y2465D01*
X421Y2465D02*
X426Y2465D01*
X381Y2464D02*
X387Y2464D01*
X404Y2464D02*
X410Y2464D01*
X421Y2464D02*
X426Y2464D01*
X380Y2463D02*
X386Y2463D01*
X405Y2463D02*
X410Y2463D01*
X421Y2463D02*
X426Y2463D01*
X380Y2462D02*
X386Y2462D01*
X405Y2462D02*
X411Y2462D01*
X421Y2462D02*
X426Y2462D01*
X380Y2461D02*
X385Y2461D01*
X406Y2461D02*
X411Y2461D01*
X421Y2461D02*
X426Y2461D01*
X380Y2460D02*
X385Y2460D01*
X406Y2460D02*
X411Y2460D01*
X421Y2460D02*
X426Y2460D01*
X380Y2459D02*
X385Y2459D01*
X406Y2459D02*
X411Y2459D01*
X421Y2459D02*
X426Y2459D01*
X380Y2458D02*
X385Y2458D01*
X406Y2458D02*
X411Y2458D01*
X421Y2458D02*
X426Y2458D01*
X380Y2457D02*
X385Y2457D01*
X406Y2457D02*
X411Y2457D01*
X421Y2457D02*
X426Y2457D01*
X380Y2456D02*
X385Y2456D01*
X406Y2456D02*
X411Y2456D01*
X421Y2456D02*
X426Y2456D01*
X380Y2455D02*
X385Y2455D01*
X406Y2455D02*
X411Y2455D01*
X421Y2455D02*
X426Y2455D01*
X380Y2454D02*
X386Y2454D01*
X405Y2454D02*
X411Y2454D01*
X421Y2454D02*
X426Y2454D01*
X380Y2453D02*
X386Y2453D01*
X404Y2453D02*
X410Y2453D01*
X421Y2453D02*
X426Y2453D01*
X381Y2452D02*
X387Y2452D01*
X403Y2452D02*
X410Y2452D01*
X421Y2452D02*
X426Y2452D01*
X381Y2451D02*
X388Y2451D01*
X403Y2451D02*
X409Y2451D01*
X421Y2451D02*
X426Y2451D01*
X382Y2450D02*
X389Y2450D01*
X402Y2450D02*
X409Y2450D01*
X420Y2450D02*
X426Y2450D01*
X383Y2449D02*
X390Y2449D01*
X401Y2449D02*
X408Y2449D01*
X419Y2449D02*
X425Y2449D01*
X384Y2448D02*
X391Y2448D01*
X400Y2448D02*
X407Y2448D01*
X418Y2448D02*
X425Y2448D01*
X382Y2447D02*
X424Y2447D01*
X380Y2446D02*
X423Y2446D01*
X380Y2445D02*
X422Y2445D01*
X380Y2444D02*
X421Y2444D01*
X380Y2443D02*
X420Y2443D01*
X381Y2442D02*
X419Y2442D01*
X368Y2427D02*
X412Y2427D01*
X368Y2426D02*
X413Y2426D01*
X367Y2425D02*
X413Y2425D01*
X367Y2424D02*
X413Y2424D01*
X368Y2423D02*
X413Y2423D01*
X369Y2422D02*
X412Y2422D01*
X385Y2421D02*
X391Y2421D01*
X384Y2420D02*
X390Y2420D01*
X383Y2419D02*
X390Y2419D01*
X383Y2418D02*
X389Y2418D01*
X382Y2417D02*
X388Y2417D01*
X382Y2416D02*
X388Y2416D01*
X381Y2415D02*
X387Y2415D01*
X381Y2414D02*
X387Y2414D01*
X380Y2413D02*
X386Y2413D01*
X380Y2412D02*
X385Y2412D01*
X380Y2411D02*
X385Y2411D01*
X380Y2410D02*
X385Y2410D01*
X380Y2409D02*
X385Y2409D01*
X380Y2408D02*
X385Y2408D01*
X380Y2407D02*
X385Y2407D01*
X380Y2406D02*
X386Y2406D01*
X380Y2405D02*
X387Y2405D01*
X381Y2404D02*
X401Y2404D01*
X381Y2403D02*
X412Y2403D01*
X382Y2402D02*
X413Y2402D01*
X383Y2401D02*
X413Y2401D01*
X384Y2400D02*
X413Y2400D01*
X386Y2399D02*
X413Y2399D01*
X400Y2398D02*
X412Y2398D01*
X381Y2383D02*
X384Y2383D01*
X380Y2382D02*
X385Y2382D01*
X380Y2381D02*
X385Y2381D01*
X380Y2380D02*
X385Y2380D01*
X380Y2379D02*
X385Y2379D01*
X380Y2378D02*
X385Y2378D01*
X371Y2377D02*
X408Y2377D01*
X370Y2376D02*
X410Y2376D01*
X370Y2375D02*
X411Y2375D01*
X370Y2374D02*
X412Y2374D01*
X370Y2373D02*
X412Y2373D01*
X372Y2372D02*
X413Y2372D01*
X380Y2371D02*
X385Y2371D01*
X407Y2371D02*
X413Y2371D01*
X380Y2370D02*
X385Y2370D01*
X408Y2370D02*
X413Y2370D01*
X380Y2369D02*
X385Y2369D01*
X408Y2369D02*
X413Y2369D01*
X380Y2368D02*
X385Y2368D01*
X408Y2368D02*
X413Y2368D01*
X380Y2367D02*
X385Y2367D01*
X408Y2367D02*
X413Y2367D01*
X380Y2366D02*
X385Y2366D01*
X408Y2366D02*
X413Y2366D01*
X380Y2365D02*
X385Y2365D01*
X408Y2365D02*
X413Y2365D01*
X380Y2364D02*
X385Y2364D01*
X408Y2364D02*
X413Y2364D01*
X380Y2363D02*
X385Y2363D01*
X408Y2363D02*
X413Y2363D01*
X380Y2362D02*
X385Y2362D01*
X408Y2362D02*
X413Y2362D01*
X380Y2361D02*
X385Y2361D01*
X407Y2361D02*
X413Y2361D01*
X380Y2360D02*
X385Y2360D01*
X406Y2360D02*
X413Y2360D01*
X380Y2359D02*
X385Y2359D01*
X404Y2359D02*
X412Y2359D01*
X381Y2358D02*
X384Y2358D01*
X403Y2358D02*
X412Y2358D01*
X382Y2357D02*
X383Y2357D01*
X403Y2357D02*
X411Y2357D01*
X403Y2356D02*
X410Y2356D01*
X404Y2355D02*
X409Y2355D01*
X405Y2354D02*
X406Y2354D01*
X388Y2296D02*
X393Y2296D01*
X385Y2295D02*
X396Y2295D01*
X383Y2294D02*
X398Y2294D01*
X381Y2293D02*
X400Y2293D01*
X379Y2292D02*
X402Y2292D01*
X377Y2291D02*
X404Y2291D01*
X375Y2290D02*
X388Y2290D01*
X393Y2290D02*
X406Y2290D01*
X373Y2289D02*
X385Y2289D01*
X395Y2289D02*
X408Y2289D01*
X371Y2288D02*
X383Y2288D01*
X397Y2288D02*
X409Y2288D01*
X370Y2287D02*
X381Y2287D01*
X399Y2287D02*
X411Y2287D01*
X369Y2286D02*
X379Y2286D01*
X401Y2286D02*
X411Y2286D01*
X368Y2285D02*
X377Y2285D01*
X403Y2285D02*
X412Y2285D01*
X368Y2284D02*
X375Y2284D01*
X405Y2284D02*
X413Y2284D01*
X367Y2283D02*
X374Y2283D01*
X407Y2283D02*
X413Y2283D01*
X367Y2282D02*
X373Y2282D01*
X408Y2282D02*
X413Y2282D01*
X367Y2281D02*
X372Y2281D01*
X408Y2281D02*
X413Y2281D01*
X367Y2280D02*
X372Y2280D01*
X408Y2280D02*
X413Y2280D01*
X367Y2279D02*
X372Y2279D01*
X408Y2279D02*
X413Y2279D01*
X367Y2278D02*
X372Y2278D01*
X408Y2278D02*
X413Y2278D01*
X367Y2277D02*
X372Y2277D01*
X408Y2277D02*
X413Y2277D01*
X367Y2276D02*
X372Y2276D01*
X408Y2276D02*
X413Y2276D01*
X367Y2275D02*
X372Y2275D01*
X408Y2275D02*
X413Y2275D01*
X367Y2274D02*
X372Y2274D01*
X408Y2274D02*
X413Y2274D01*
X367Y2273D02*
X372Y2273D01*
X408Y2273D02*
X413Y2273D01*
X367Y2272D02*
X372Y2272D01*
X408Y2272D02*
X413Y2272D01*
X367Y2271D02*
X372Y2271D01*
X408Y2271D02*
X413Y2271D01*
X367Y2270D02*
X372Y2270D01*
X408Y2270D02*
X413Y2270D01*
X367Y2269D02*
X372Y2269D01*
X408Y2269D02*
X413Y2269D01*
X367Y2268D02*
X372Y2268D01*
X409Y2268D02*
X413Y2268D01*
X368Y2267D02*
X371Y2267D01*
X409Y2267D02*
X412Y2267D01*
X388Y2252D02*
X406Y2252D01*
X386Y2251D02*
X408Y2251D01*
X385Y2250D02*
X409Y2250D01*
X384Y2249D02*
X410Y2249D01*
X383Y2248D02*
X411Y2248D01*
X382Y2247D02*
X411Y2247D01*
X381Y2246D02*
X388Y2246D01*
X405Y2246D02*
X412Y2246D01*
X381Y2245D02*
X387Y2245D01*
X406Y2245D02*
X413Y2245D01*
X380Y2244D02*
X386Y2244D01*
X407Y2244D02*
X413Y2244D01*
X380Y2243D02*
X386Y2243D01*
X408Y2243D02*
X413Y2243D01*
X380Y2242D02*
X385Y2242D01*
X408Y2242D02*
X413Y2242D01*
X380Y2241D02*
X385Y2241D01*
X408Y2241D02*
X413Y2241D01*
X380Y2240D02*
X385Y2240D01*
X408Y2240D02*
X413Y2240D01*
X380Y2239D02*
X385Y2239D01*
X408Y2239D02*
X413Y2239D01*
X380Y2238D02*
X385Y2238D01*
X408Y2238D02*
X413Y2238D01*
X380Y2237D02*
X385Y2237D01*
X408Y2237D02*
X413Y2237D01*
X380Y2236D02*
X385Y2236D01*
X408Y2236D02*
X413Y2236D01*
X380Y2235D02*
X385Y2235D01*
X408Y2235D02*
X413Y2235D01*
X380Y2234D02*
X385Y2234D01*
X408Y2234D02*
X413Y2234D01*
X380Y2233D02*
X385Y2233D01*
X408Y2233D02*
X413Y2233D01*
X380Y2232D02*
X386Y2232D01*
X408Y2232D02*
X413Y2232D01*
X380Y2231D02*
X386Y2231D01*
X407Y2231D02*
X413Y2231D01*
X381Y2230D02*
X387Y2230D01*
X406Y2230D02*
X413Y2230D01*
X381Y2229D02*
X389Y2229D01*
X405Y2229D02*
X412Y2229D01*
X382Y2228D02*
X411Y2228D01*
X383Y2227D02*
X410Y2227D01*
X384Y2226D02*
X410Y2226D01*
X385Y2225D02*
X409Y2225D01*
X386Y2224D02*
X407Y2224D01*
X388Y2223D02*
X405Y2223D01*
X381Y2208D02*
X412Y2208D01*
X380Y2207D02*
X413Y2207D01*
X380Y2206D02*
X413Y2206D01*
X380Y2205D02*
X413Y2205D01*
X381Y2204D02*
X413Y2204D01*
X382Y2203D02*
X411Y2203D01*
X385Y2202D02*
X391Y2202D01*
X384Y2201D02*
X390Y2201D01*
X383Y2200D02*
X390Y2200D01*
X383Y2199D02*
X389Y2199D01*
X382Y2198D02*
X388Y2198D01*
X382Y2197D02*
X388Y2197D01*
X381Y2196D02*
X387Y2196D01*
X381Y2195D02*
X386Y2195D01*
X380Y2194D02*
X386Y2194D01*
X380Y2193D02*
X385Y2193D01*
X380Y2192D02*
X385Y2192D01*
X380Y2191D02*
X385Y2191D01*
X380Y2190D02*
X385Y2190D01*
X380Y2189D02*
X385Y2189D01*
X380Y2188D02*
X385Y2188D01*
X380Y2187D02*
X386Y2187D01*
X380Y2186D02*
X387Y2186D01*
X381Y2185D02*
X404Y2185D01*
X381Y2184D02*
X412Y2184D01*
X382Y2183D02*
X413Y2183D01*
X383Y2182D02*
X413Y2182D01*
X384Y2181D02*
X413Y2181D01*
X386Y2180D02*
X413Y2180D01*
X403Y2179D02*
X411Y2179D01*
X381Y2164D02*
X384Y2164D01*
X380Y2163D02*
X385Y2163D01*
X380Y2162D02*
X385Y2162D01*
X380Y2161D02*
X385Y2161D01*
X380Y2160D02*
X385Y2160D01*
X373Y2159D02*
X405Y2159D01*
X371Y2158D02*
X408Y2158D01*
X370Y2157D02*
X410Y2157D01*
X370Y2156D02*
X411Y2156D01*
X370Y2155D02*
X412Y2155D01*
X371Y2154D02*
X412Y2154D01*
X372Y2153D02*
X413Y2153D01*
X380Y2152D02*
X385Y2152D01*
X407Y2152D02*
X413Y2152D01*
X380Y2151D02*
X385Y2151D01*
X408Y2151D02*
X413Y2151D01*
X380Y2150D02*
X385Y2150D01*
X408Y2150D02*
X413Y2150D01*
X380Y2149D02*
X385Y2149D01*
X408Y2149D02*
X413Y2149D01*
X380Y2148D02*
X385Y2148D01*
X408Y2148D02*
X413Y2148D01*
X380Y2147D02*
X385Y2147D01*
X408Y2147D02*
X413Y2147D01*
X380Y2146D02*
X385Y2146D01*
X408Y2146D02*
X413Y2146D01*
X380Y2145D02*
X385Y2145D01*
X408Y2145D02*
X413Y2145D01*
X380Y2144D02*
X385Y2144D01*
X408Y2144D02*
X413Y2144D01*
X380Y2143D02*
X385Y2143D01*
X408Y2143D02*
X413Y2143D01*
X380Y2142D02*
X385Y2142D01*
X407Y2142D02*
X413Y2142D01*
X380Y2141D02*
X385Y2141D01*
X406Y2141D02*
X413Y2141D01*
X380Y2140D02*
X385Y2140D01*
X404Y2140D02*
X412Y2140D01*
X381Y2139D02*
X384Y2139D01*
X403Y2139D02*
X412Y2139D01*
X403Y2138D02*
X411Y2138D01*
X403Y2137D02*
X410Y2137D01*
X404Y2136D02*
X409Y2136D01*
X406Y2135D02*
X406Y2135D01*
X382Y2121D02*
X411Y2121D01*
X381Y2120D02*
X413Y2120D01*
X380Y2119D02*
X413Y2119D01*
X380Y2118D02*
X413Y2118D01*
X380Y2117D02*
X413Y2117D01*
X381Y2116D02*
X412Y2116D01*
X386Y2115D02*
X394Y2115D01*
X386Y2114D02*
X393Y2114D01*
X385Y2113D02*
X392Y2113D01*
X384Y2112D02*
X391Y2112D01*
X383Y2111D02*
X390Y2111D01*
X382Y2110D02*
X389Y2110D01*
X381Y2109D02*
X388Y2109D01*
X381Y2108D02*
X388Y2108D01*
X380Y2107D02*
X387Y2107D01*
X380Y2106D02*
X386Y2106D01*
X380Y2105D02*
X385Y2105D01*
X380Y2104D02*
X385Y2104D01*
X380Y2103D02*
X385Y2103D01*
X380Y2102D02*
X385Y2102D01*
X380Y2101D02*
X385Y2101D01*
X380Y2100D02*
X385Y2100D01*
X380Y2099D02*
X385Y2099D01*
X380Y2098D02*
X386Y2098D01*
X381Y2097D02*
X391Y2097D01*
X381Y2096D02*
X392Y2096D01*
X382Y2095D02*
X393Y2095D01*
X383Y2094D02*
X393Y2094D01*
X384Y2093D02*
X392Y2093D01*
X385Y2092D02*
X392Y2092D01*
X388Y2077D02*
X405Y2077D01*
X386Y2076D02*
X407Y2076D01*
X385Y2075D02*
X409Y2075D01*
X384Y2074D02*
X410Y2074D01*
X383Y2073D02*
X410Y2073D01*
X382Y2072D02*
X411Y2072D01*
X381Y2071D02*
X389Y2071D01*
X405Y2071D02*
X412Y2071D01*
X381Y2070D02*
X387Y2070D01*
X406Y2070D02*
X413Y2070D01*
X380Y2069D02*
X386Y2069D01*
X407Y2069D02*
X413Y2069D01*
X380Y2068D02*
X386Y2068D01*
X408Y2068D02*
X413Y2068D01*
X380Y2067D02*
X385Y2067D01*
X408Y2067D02*
X413Y2067D01*
X380Y2066D02*
X385Y2066D01*
X408Y2066D02*
X413Y2066D01*
X380Y2065D02*
X385Y2065D01*
X408Y2065D02*
X413Y2065D01*
X380Y2064D02*
X385Y2064D01*
X408Y2064D02*
X413Y2064D01*
X380Y2063D02*
X385Y2063D01*
X408Y2063D02*
X413Y2063D01*
X380Y2062D02*
X385Y2062D01*
X408Y2062D02*
X413Y2062D01*
X380Y2061D02*
X385Y2061D01*
X408Y2061D02*
X413Y2061D01*
X380Y2060D02*
X385Y2060D01*
X408Y2060D02*
X413Y2060D01*
X380Y2059D02*
X385Y2059D01*
X408Y2059D02*
X413Y2059D01*
X380Y2058D02*
X385Y2058D01*
X408Y2058D02*
X413Y2058D01*
X380Y2057D02*
X386Y2057D01*
X408Y2057D02*
X413Y2057D01*
X380Y2056D02*
X386Y2056D01*
X407Y2056D02*
X413Y2056D01*
X381Y2055D02*
X387Y2055D01*
X406Y2055D02*
X413Y2055D01*
X381Y2054D02*
X388Y2054D01*
X405Y2054D02*
X412Y2054D01*
X382Y2053D02*
X411Y2053D01*
X383Y2052D02*
X411Y2052D01*
X384Y2051D02*
X410Y2051D01*
X385Y2050D02*
X409Y2050D01*
X386Y2049D02*
X407Y2049D01*
X388Y2048D02*
X406Y2048D01*
X368Y2030D02*
X371Y2030D01*
X409Y2030D02*
X412Y2030D01*
X368Y2029D02*
X372Y2029D01*
X409Y2029D02*
X413Y2029D01*
X367Y2028D02*
X372Y2028D01*
X408Y2028D02*
X413Y2028D01*
X367Y2027D02*
X372Y2027D01*
X408Y2027D02*
X413Y2027D01*
X367Y2026D02*
X372Y2026D01*
X408Y2026D02*
X413Y2026D01*
X367Y2025D02*
X372Y2025D01*
X408Y2025D02*
X413Y2025D01*
X367Y2024D02*
X372Y2024D01*
X408Y2024D02*
X413Y2024D01*
X367Y2023D02*
X372Y2023D01*
X408Y2023D02*
X413Y2023D01*
X367Y2022D02*
X372Y2022D01*
X408Y2022D02*
X413Y2022D01*
X367Y2021D02*
X413Y2021D01*
X367Y2020D02*
X413Y2020D01*
X367Y2019D02*
X413Y2019D01*
X367Y2018D02*
X413Y2018D01*
X368Y2017D02*
X413Y2017D01*
X369Y2016D02*
X413Y2016D01*
X408Y2015D02*
X413Y2015D01*
X408Y2014D02*
X413Y2014D01*
X408Y2013D02*
X413Y2013D01*
X408Y2012D02*
X413Y2012D01*
X408Y2011D02*
X413Y2011D01*
X408Y2010D02*
X413Y2010D01*
X408Y2009D02*
X413Y2009D01*
X409Y2008D02*
X413Y2008D01*
X410Y2007D02*
X412Y2007D01*
X368Y1986D02*
X371Y1986D01*
X409Y1986D02*
X412Y1986D01*
X367Y1985D02*
X372Y1985D01*
X409Y1985D02*
X413Y1985D01*
X367Y1984D02*
X372Y1984D01*
X408Y1984D02*
X413Y1984D01*
X367Y1983D02*
X372Y1983D01*
X408Y1983D02*
X413Y1983D01*
X367Y1982D02*
X372Y1982D01*
X408Y1982D02*
X413Y1982D01*
X367Y1981D02*
X372Y1981D01*
X408Y1981D02*
X413Y1981D01*
X367Y1980D02*
X372Y1980D01*
X408Y1980D02*
X413Y1980D01*
X367Y1979D02*
X372Y1979D01*
X408Y1979D02*
X413Y1979D01*
X367Y1978D02*
X373Y1978D01*
X408Y1978D02*
X413Y1978D01*
X367Y1977D02*
X413Y1977D01*
X367Y1976D02*
X413Y1976D01*
X367Y1975D02*
X413Y1975D01*
X367Y1974D02*
X413Y1974D01*
X368Y1973D02*
X413Y1973D01*
X369Y1972D02*
X413Y1972D01*
X408Y1971D02*
X413Y1971D01*
X408Y1970D02*
X413Y1970D01*
X408Y1969D02*
X413Y1969D01*
X408Y1968D02*
X413Y1968D01*
X408Y1967D02*
X413Y1967D01*
X408Y1966D02*
X413Y1966D01*
X408Y1965D02*
X413Y1965D01*
X409Y1964D02*
X413Y1964D01*
X410Y1963D02*
X411Y1963D01*
X390Y1946D02*
X404Y1946D01*
X387Y1945D02*
X407Y1945D01*
X385Y1944D02*
X408Y1944D01*
X384Y1943D02*
X409Y1943D01*
X383Y1942D02*
X410Y1942D01*
X382Y1941D02*
X411Y1941D01*
X382Y1940D02*
X390Y1940D01*
X395Y1940D02*
X401Y1940D01*
X404Y1940D02*
X412Y1940D01*
X381Y1939D02*
X388Y1939D01*
X395Y1939D02*
X401Y1939D01*
X406Y1939D02*
X412Y1939D01*
X381Y1938D02*
X387Y1938D01*
X395Y1938D02*
X401Y1938D01*
X407Y1938D02*
X413Y1938D01*
X380Y1937D02*
X386Y1937D01*
X395Y1937D02*
X401Y1937D01*
X407Y1937D02*
X413Y1937D01*
X380Y1936D02*
X385Y1936D01*
X395Y1936D02*
X401Y1936D01*
X408Y1936D02*
X413Y1936D01*
X380Y1935D02*
X385Y1935D01*
X395Y1935D02*
X401Y1935D01*
X408Y1935D02*
X413Y1935D01*
X380Y1934D02*
X385Y1934D01*
X395Y1934D02*
X401Y1934D01*
X408Y1934D02*
X413Y1934D01*
X380Y1933D02*
X385Y1933D01*
X395Y1933D02*
X401Y1933D01*
X408Y1933D02*
X413Y1933D01*
X380Y1932D02*
X385Y1932D01*
X395Y1932D02*
X401Y1932D01*
X408Y1932D02*
X413Y1932D01*
X380Y1931D02*
X385Y1931D01*
X395Y1931D02*
X401Y1931D01*
X408Y1931D02*
X413Y1931D01*
X380Y1930D02*
X385Y1930D01*
X395Y1930D02*
X401Y1930D01*
X408Y1930D02*
X413Y1930D01*
X380Y1929D02*
X385Y1929D01*
X395Y1929D02*
X401Y1929D01*
X408Y1929D02*
X413Y1929D01*
X380Y1928D02*
X385Y1928D01*
X395Y1928D02*
X401Y1928D01*
X408Y1928D02*
X413Y1928D01*
X380Y1927D02*
X385Y1927D01*
X395Y1927D02*
X401Y1927D01*
X408Y1927D02*
X413Y1927D01*
X380Y1926D02*
X385Y1926D01*
X395Y1926D02*
X401Y1926D01*
X408Y1926D02*
X413Y1926D01*
X380Y1925D02*
X386Y1925D01*
X395Y1925D02*
X401Y1925D01*
X408Y1925D02*
X413Y1925D01*
X381Y1924D02*
X387Y1924D01*
X395Y1924D02*
X401Y1924D01*
X408Y1924D02*
X413Y1924D01*
X381Y1923D02*
X388Y1923D01*
X395Y1923D02*
X401Y1923D01*
X408Y1923D02*
X413Y1923D01*
X382Y1922D02*
X401Y1922D01*
X408Y1922D02*
X413Y1922D01*
X382Y1921D02*
X401Y1921D01*
X408Y1921D02*
X413Y1921D01*
X383Y1920D02*
X401Y1920D01*
X408Y1920D02*
X413Y1920D01*
X384Y1919D02*
X400Y1919D01*
X408Y1919D02*
X413Y1919D01*
X385Y1918D02*
X400Y1918D01*
X409Y1918D02*
X413Y1918D01*
X387Y1917D02*
X400Y1917D01*
X409Y1917D02*
X412Y1917D01*
X391Y1916D02*
X397Y1916D01*
X382Y1902D02*
X412Y1902D01*
X381Y1901D02*
X413Y1901D01*
X380Y1900D02*
X413Y1900D01*
X380Y1899D02*
X413Y1899D01*
X380Y1898D02*
X413Y1898D01*
X381Y1897D02*
X412Y1897D01*
X386Y1896D02*
X394Y1896D01*
X386Y1895D02*
X393Y1895D01*
X385Y1894D02*
X392Y1894D01*
X384Y1893D02*
X391Y1893D01*
X383Y1892D02*
X390Y1892D01*
X382Y1891D02*
X389Y1891D01*
X381Y1890D02*
X388Y1890D01*
X380Y1889D02*
X387Y1889D01*
X380Y1888D02*
X387Y1888D01*
X380Y1887D02*
X386Y1887D01*
X380Y1886D02*
X385Y1886D01*
X380Y1885D02*
X385Y1885D01*
X380Y1884D02*
X385Y1884D01*
X380Y1883D02*
X385Y1883D01*
X380Y1882D02*
X385Y1882D01*
X380Y1881D02*
X385Y1881D01*
X380Y1880D02*
X385Y1880D01*
X380Y1879D02*
X386Y1879D01*
X381Y1878D02*
X391Y1878D01*
X381Y1877D02*
X392Y1877D01*
X382Y1876D02*
X393Y1876D01*
X383Y1875D02*
X393Y1875D01*
X384Y1874D02*
X392Y1874D01*
X385Y1873D02*
X392Y1873D01*
D02*
G04 End of Silk0*
M02*